<?xml version="1.0" standalone="no"?>
<!DOCTYPE svg PUBLIC "-//W3C//DTD SVG 20010904//EN"
 "http://www.w3.org/TR/2001/REC-SVG-20010904/DTD/svg10.dtd">
<svg version="1.0" xmlns="http://www.w3.org/2000/svg"
 width="1376.000000pt" height="751.000000pt" viewBox="0 0 1376.000000 751.000000"
 preserveAspectRatio="xMidYMid meet">

<g transform="translate(0.000000,751.000000) scale(0.100000,-0.100000)"
fill="#000000" stroke="none">
<path d="M4454 6260 c-43 -17 -82 -69 -94 -123 -8 -38 -10 -694 -8 -2417 3
-2230 4 -2367 20 -2397 10 -18 35 -45 55 -60 l36 -28 2418 0 2417 0 38 30 c20
17 45 46 56 65 18 34 18 110 16 2430 l-3 2395 -23 37 c-13 20 -38 46 -56 57
l-33 21 -2409 -1 c-1325 0 -2418 -4 -2430 -9z m759 -1317 c-26 -5 -31 -23 -8
-23 8 0 15 -4 15 -10 0 -5 -7 -10 -15 -10 -23 0 -18 -18 8 -23 16 -3 13 -5
-10 -6 -32 -1 -33 0 -33 39 0 39 1 40 33 39 23 -1 26 -3 10 -6z m57 -8 c0 -8
5 -15 10 -15 6 0 10 7 10 15 0 8 5 15 10 15 6 0 10 -18 10 -40 0 -22 -4 -40
-10 -40 -5 0 -10 7 -10 15 0 8 -4 15 -10 15 -5 0 -10 -7 -10 -15 0 -8 -4 -15
-10 -15 -5 0 -10 18 -10 40 0 22 5 40 10 40 6 0 10 -7 10 -15z m80 0 c0 -8 5
-15 10 -15 6 0 10 7 10 15 0 8 5 15 10 15 6 0 10 -18 10 -40 0 -22 -4 -40 -10
-40 -5 0 -10 7 -10 15 0 8 -4 15 -10 15 -5 0 -10 -7 -10 -15 0 -8 -4 -15 -10
-15 -5 0 -10 18 -10 40 0 22 5 40 10 40 6 0 10 -7 10 -15z m116 3 c5 -8 0 -9
-14 -6 -12 4 -22 2 -22 -3 0 -5 9 -9 20 -9 15 0 20 -7 20 -26 0 -22 -4 -25
-27 -22 -29 3 -41 32 -29 64 6 17 42 19 52 2z m84 -29 c0 -38 -1 -40 -27 -37
-47 5 -45 78 2 78 23 0 25 -4 25 -41z m75 1 c0 -28 -4 -36 -21 -38 -17 -2 -23
4 -28 29 -7 38 0 51 27 47 17 -2 21 -10 22 -38z m81 -2 c1 -33 -2 -38 -21 -38
-17 0 -24 8 -29 31 -7 38 0 51 27 47 17 -2 22 -10 23 -40z m74 30 c0 -5 0 -21
0 -38 0 -25 -4 -30 -25 -30 -23 0 -25 4 -25 41 0 37 2 40 25 37 14 -2 25 -6
25 -10z m85 -30 c2 -33 -1 -38 -20 -38 -18 0 -24 7 -28 33 -6 40 -1 49 25 45
16 -2 21 -11 23 -40z m80 33 c3 -5 1 -12 -4 -15 -5 -4 -12 0 -14 6 -4 9 -6 10
-6 1 -1 -6 4 -15 9 -18 15 -9 12 -42 -5 -48 -18 -8 -27 7 -31 49 -3 30 0 34
21 34 13 0 26 -4 30 -9z m73 -32 c1 -36 -2 -40 -21 -37 -38 5 -36 78 2 78 15
0 19 -7 19 -41z m74 1 c3 -33 0 -40 -14 -40 -14 0 -15 5 -8 30 5 19 5 30 -1
30 -6 0 -7 5 -4 10 13 20 23 9 27 -30z m83 0 c0 -37 -4 -44 -22 -37 -3 1 -7
19 -8 40 -2 28 2 37 14 37 13 0 17 -9 16 -40z m88 33 c4 -3 1 -13 -6 -21 -9
-12 -9 -16 1 -19 18 -7 15 -21 -7 -32 -14 -8 -22 -7 -32 6 -12 15 -12 16 4 10
21 -8 21 1 2 27 -8 10 -12 23 -9 27 6 11 38 12 47 2z m76 -15 c-2 -13 0 -29 4
-36 5 -7 2 -14 -7 -18 -28 -11 -43 3 -44 40 -1 32 1 36 24 36 21 0 25 -4 23
-22z m84 16 c3 -4 2 -15 -3 -25 -7 -12 -7 -20 0 -24 19 -12 10 -25 -18 -25
-25 0 -27 3 -28 40 -1 35 1 40 21 40 12 0 25 -3 28 -6z m77 -29 c-5 -20 -4
-33 1 -29 5 3 9 0 9 -5 0 -19 -30 -12 -31 7 -1 16 -2 16 -6 0 -8 -32 -21 -19
-21 22 -1 37 1 40 28 40 27 0 28 -1 20 -35z m79 14 c-8 -17 -8 -23 1 -29 7 -4
9 -13 6 -19 -9 -14 -43 -14 -52 0 -4 8 1 9 17 4 22 -7 23 -6 10 9 -12 14 -12
19 -2 26 8 5 9 10 3 14 -6 3 -12 0 -15 -6 -2 -7 -8 -10 -12 -6 -12 12 5 28 31
28 22 0 24 -2 13 -21z m81 6 c0 -18 -16 -20 -23 -2 -4 7 -6 6 -6 -4 -1 -9 6
-19 14 -23 25 -9 18 -38 -7 -34 -18 2 -23 10 -23 33 0 17 1 33 3 38 6 13 42 7
42 -8z m473 8 c-28 -5 -29 -12 -5 -29 16 -13 16 -13 0 -14 -26 0 -22 -18 5
-23 16 -3 13 -5 -10 -6 -32 -1 -33 0 -33 39 0 39 1 40 33 39 23 -1 26 -3 10
-6z m63 -23 c8 0 14 7 14 15 0 8 5 15 10 15 6 0 10 -18 10 -40 0 -22 -4 -40
-10 -40 -5 0 -10 7 -10 15 0 21 -28 19 -33 -2 -3 -10 -5 2 -5 27 0 25 2 37 5
28 2 -10 11 -18 19 -18z m104 0 c0 -16 0 -33 0 -37 0 -5 -11 -9 -25 -11 -23
-3 -25 0 -25 37 0 37 2 41 25 41 21 0 25 -5 25 -30z m56 0 c8 0 13 4 9 9 -3 5
-1 12 5 16 6 4 10 -10 9 -37 -1 -24 -3 -35 -6 -25 -6 21 -33 23 -33 1 0 -8 -5
-12 -10 -9 -9 6 -9 23 0 70 1 6 4 2 7 -7 2 -10 11 -18 19 -18z m972 23 c-21
-5 -23 -19 -5 -27 10 -5 10 -7 0 -12 -18 -8 -16 -22 5 -27 10 -3 6 -5 -10 -6
-26 -1 -28 2 -28 39 0 37 2 40 28 39 16 -1 20 -3 10 -6z m52 -8 c0 -8 5 -15
10 -15 6 0 10 7 10 15 0 23 17 18 22 -7 5 -30 -1 -58 -13 -58 -5 0 -9 8 -9 18
-1 16 -1 16 -14 0 -20 -27 -26 -22 -26 22 0 22 5 40 10 40 6 0 10 -7 10 -15z
m86 -2 c13 -17 13 -17 14 0 0 37 20 15 20 -23 0 -45 -11 -52 -28 -17 l-11 22
0 -22 c-2 -41 -21 -24 -21 17 0 44 6 49 26 23z m74 -39 c-8 -27 -8 -26 -9 16
0 32 2 40 9 29 5 -9 6 -28 0 -45z m40 16 c0 -41 -14 -55 -22 -22 -5 18 7 62
17 62 3 0 5 -18 5 -40z m-3450 10 c0 -5 -4 -10 -10 -10 -5 0 -10 5 -10 10 0 6
5 10 10 10 6 0 10 -4 10 -10z m1907 -22 c-3 -7 -5 -2 -5 12 0 14 2 19 5 13 2
-7 2 -19 0 -25z m-1907 -18 c0 -5 -5 -10 -11 -10 -5 0 -7 5 -4 10 3 6 8 10 11
10 2 0 4 -4 4 -10z m83 -67 c-26 -5 -31 -23 -8 -23 8 0 15 -4 15 -10 0 -5 -7
-10 -15 -10 -23 0 -18 -18 8 -23 19 -4 18 -4 -5 -6 -20 -1 -28 4 -28 17 0 9
-3 27 -6 40 -6 20 -3 22 27 21 24 -1 27 -3 12 -6z m57 -8 c0 -8 5 -15 10 -15
6 0 10 7 10 15 0 8 5 15 10 15 6 0 10 -18 10 -40 0 -22 -4 -40 -10 -40 -5 0
-10 7 -10 15 0 8 -4 15 -10 15 -5 0 -10 -7 -10 -15 0 -8 -4 -15 -10 -15 -5 0
-10 18 -10 40 0 22 5 40 10 40 6 0 10 -7 10 -15z m120 -25 c0 -29 -4 -40 -15
-40 -8 0 -15 6 -16 13 0 10 -2 10 -6 0 -10 -27 -23 -11 -23 27 0 38 2 40 30
40 28 0 30 -2 30 -40z m77 -2 c3 -36 2 -38 -27 -38 -28 0 -30 2 -30 41 0 38 2
40 26 37 23 -3 28 -9 31 -40z m63 16 c0 -8 -4 -14 -10 -14 -5 0 -10 9 -10 21
0 11 5 17 10 14 6 -3 10 -13 10 -21z m650 2 c0 -35 -10 -56 -26 -56 -8 0 -14
8 -14 18 0 9 -3 27 -6 40 -5 19 -2 22 20 22 21 0 26 -5 26 -24z m70 -2 c0 -14
-12 -19 -23 -8 -9 9 4 35 14 28 5 -3 9 -12 9 -20z m87 -4 c0 -16 -4 -27 -9
-24 -4 3 -5 -2 -2 -10 4 -11 0 -16 -11 -16 -11 0 -15 5 -11 15 3 8 1 26 -4 40
-8 22 -7 25 14 25 18 0 23 -5 23 -30z m81 13 c-1 -10 1 -24 5 -30 12 -19 -1
-33 -29 -33 -21 0 -24 5 -24 33 0 39 6 47 32 47 13 0 18 -6 16 -17z m88 -3 c0
-11 -4 -20 -9 -20 -5 0 -5 -9 -2 -20 4 -11 2 -20 -4 -20 -6 0 -12 8 -12 18 -1
16 -2 16 -6 0 -7 -26 -20 -22 -26 9 -7 39 1 53 32 53 20 0 27 -5 27 -20z m74
9 c0 -6 -7 -9 -14 -6 -10 4 -13 1 -9 -9 3 -7 9 -14 14 -14 15 0 10 -37 -5 -43
-15 -6 -26 1 -26 15 0 5 4 7 9 3 5 -3 12 -1 16 5 3 5 0 10 -7 10 -8 0 -15 11
-16 25 -1 19 3 25 18 25 11 0 20 -5 20 -11z m80 -4 c10 -12 10 -15 -3 -15 -8
0 -18 6 -20 13 -4 7 -6 6 -6 -4 -1 -9 9 -19 21 -22 18 -5 19 -8 8 -21 -14 -18
-50 -22 -50 -6 0 6 10 11 23 11 16 1 18 2 5 6 -10 2 -18 8 -18 13 0 5 -3 15
-6 24 -8 21 29 22 46 1z m473 8 c-28 -5 -29 -12 -5 -29 16 -13 16 -13 0 -14
-26 0 -22 -18 5 -23 16 -3 13 -5 -10 -6 -32 -1 -33 0 -33 39 0 39 1 40 33 39
23 -1 26 -3 10 -6z m47 -3 c0 -5 7 -10 15 -10 8 0 15 5 15 10 0 6 5 10 10 10
6 0 10 -18 10 -40 0 -41 -19 -58 -21 -17 0 12 -3 16 -6 8 -5 -11 -7 -11 -14 0
-6 10 -9 8 -9 -8 0 -13 -4 -23 -10 -23 -5 0 -10 18 -10 40 0 22 5 40 10 40 6
0 10 -4 10 -10z m120 -14 c0 -13 3 -31 6 -40 5 -13 -1 -16 -25 -16 -30 0 -31
2 -31 40 0 36 3 40 25 40 20 0 25 -5 25 -24z m77 -16 c-1 -22 -5 -40 -9 -40
-4 0 -8 7 -8 15 0 21 -20 19 -21 -2 0 -15 -2 -15 -9 2 -5 11 -9 30 -9 43 -1
18 4 22 28 22 28 0 30 -2 28 -40z m951 33 c-21 -5 -23 -19 -5 -27 10 -5 10 -7
0 -12 -18 -8 -16 -22 5 -27 10 -3 6 -5 -10 -6 -26 -1 -28 2 -28 39 0 37 2 40
28 39 16 -1 20 -3 10 -6z m57 -2 c-3 -5 -1 -12 5 -16 5 -3 10 1 10 9 0 9 5 16
10 16 6 0 10 -18 10 -40 0 -22 -4 -40 -10 -40 -5 0 -10 7 -10 15 0 8 -4 15
-10 15 -5 0 -10 -7 -10 -15 0 -8 -4 -15 -10 -15 -5 0 -10 18 -10 40 0 30 4 40
16 40 8 0 13 -4 9 -9z m79 -3 c5 -10 7 -10 12 0 3 6 12 12 20 12 10 0 14 -12
14 -40 0 -43 -14 -52 -36 -22 -13 16 -13 16 -14 0 0 -38 -20 -16 -20 22 0 39
12 53 24 28z m96 -5 c0 9 5 17 10 17 6 0 10 -18 10 -40 0 -44 -6 -49 -26 -22
-13 16 -13 16 -14 0 0 -10 -4 -18 -10 -18 -11 0 -13 40 -3 66 6 16 7 16 20 -2
12 -16 13 -16 13 -1z m-2950 -2 c0 -6 -4 -13 -10 -16 -5 -3 -10 1 -10 9 0 9 5
16 10 16 6 0 10 -4 10 -9z m80 0 c0 -6 -4 -13 -10 -16 -5 -3 -10 1 -10 9 0 9
5 16 10 16 6 0 10 -4 10 -9z m80 0 c0 -6 -4 -13 -10 -16 -5 -3 -10 1 -10 9 0
9 5 16 10 16 6 0 10 -4 10 -9z m80 -1 c0 -5 -4 -10 -10 -10 -5 0 -10 5 -10 10
0 6 5 10 10 10 6 0 10 -4 10 -10z m80 1 c0 -6 -4 -13 -10 -16 -5 -3 -10 1 -10
9 0 9 5 16 10 16 6 0 10 -4 10 -9z m80 1 c0 -13 -12 -22 -22 -16 -10 6 -1 24
13 24 5 0 9 -4 9 -8z m80 -1 c0 -6 -4 -13 -10 -16 -5 -3 -10 1 -10 9 0 9 5 16
10 16 6 0 10 -4 10 -9z m947 -13 c-3 -8 -6 -5 -6 6 -1 11 2 17 5 13 3 -3 4
-12 1 -19z m400 0 c-3 -8 -6 -5 -6 6 -1 11 2 17 5 13 3 -3 4 -12 1 -19z
m-2307 2 c0 -5 -2 -10 -4 -10 -3 0 -8 5 -11 10 -3 6 -1 10 4 10 6 0 11 -4 11
-10z m1600 6 c0 -3 -4 -8 -10 -11 -5 -3 -10 -1 -10 4 0 6 5 11 10 11 6 0 10
-2 10 -4z m-1600 -46 c0 -5 -4 -10 -10 -10 -5 0 -10 5 -10 10 0 6 5 10 10 10
6 0 10 -4 10 -10z m400 0 c0 -5 -4 -10 -10 -10 -5 0 -10 5 -10 10 0 6 5 10 10
10 6 0 10 -4 10 -10z m80 0 c0 -5 -4 -10 -10 -10 -5 0 -10 5 -10 10 0 6 5 10
10 10 6 0 10 -4 10 -10z m80 0 c0 -5 -4 -10 -10 -10 -5 0 -10 5 -10 10 0 6 5
10 10 10 6 0 10 -4 10 -10z m80 0 c0 -5 -4 -10 -10 -10 -5 0 -10 5 -10 10 0 6
5 10 10 10 6 0 10 -4 10 -10z m80 0 c0 -5 -4 -10 -10 -10 -5 0 -10 5 -10 10 0
6 5 10 10 10 6 0 10 -4 10 -10z m80 0 c0 -5 -4 -10 -10 -10 -5 0 -10 5 -10 10
0 6 5 10 10 10 6 0 10 -4 10 -10z m80 0 c0 -5 -4 -10 -10 -10 -5 0 -10 5 -10
10 0 6 5 10 10 10 6 0 10 -4 10 -10z m80 0 c0 -5 -4 -10 -10 -10 -5 0 -10 5
-10 10 0 6 5 10 10 10 6 0 10 -4 10 -10z m160 0 c0 -5 -4 -10 -10 -10 -5 0
-10 5 -10 10 0 6 5 10 10 10 6 0 10 -4 10 -10z m475 0 c3 -5 1 -10 -4 -10 -6
0 -11 5 -11 10 0 6 2 10 4 10 3 0 8 -4 11 -10z m-1512 -67 c-26 -5 -31 -23 -8
-23 8 0 15 -4 15 -10 0 -5 -7 -10 -15 -10 -23 0 -18 -18 8 -23 16 -3 13 -5
-10 -6 -32 -1 -33 0 -33 39 0 39 1 40 33 39 23 -1 26 -3 10 -6z m57 -8 c0 -8
5 -15 10 -15 6 0 10 7 10 15 0 8 5 15 10 15 6 0 10 -18 10 -40 0 -22 -4 -40
-10 -40 -5 0 -10 7 -10 15 0 8 -4 15 -10 15 -5 0 -10 -7 -10 -15 0 -8 -4 -15
-10 -15 -5 0 -10 18 -10 40 0 22 5 40 10 40 6 0 10 -7 10 -15z m120 -25 c0
-42 -12 -52 -29 -22 -10 16 -10 16 -11 0 0 -10 -4 -18 -10 -18 -5 0 -10 18
-10 40 0 38 2 40 30 40 28 0 30 -2 30 -40z m76 29 c4 -8 0 -9 -15 -4 -15 4
-21 2 -21 -8 0 -8 8 -14 17 -13 12 1 19 -7 21 -22 3 -20 0 -23 -25 -20 -29 3
-42 31 -29 64 6 17 42 19 52 3z m862 -13 c3 -12 -1 -17 -10 -14 -7 3 -15 13
-16 22 -3 12 1 17 10 14 7 -3 15 -13 16 -22z m82 14 c8 13 10 13 10 -1 0 -22
-8 -28 -30 -22 -11 3 -16 11 -13 20 5 12 7 12 14 1 7 -11 11 -10 19 2z m80 -1
c-11 -8 -12 -12 -2 -16 17 -7 15 -24 -3 -17 -20 8 -19 -6 3 -22 15 -12 14 -13
-12 -14 -22 0 -27 3 -22 17 4 9 1 20 -5 24 -17 10 10 38 36 38 17 1 18 -1 5
-10z m638 4 c-10 -2 -18 -8 -18 -13 0 -4 8 -11 18 -15 15 -6 14 -8 -8 -17
l-25 -11 25 -7 25 -8 -27 -1 c-26 -1 -28 2 -28 39 0 37 2 40 28 39 16 -1 20
-3 10 -6z m77 -10 c12 30 25 18 25 -23 0 -22 -4 -40 -10 -40 -5 0 -10 9 -10
20 0 25 -23 22 -32 -5 -4 -13 -6 -4 -7 24 -1 41 0 43 13 25 14 -18 15 -18 21
-1z m95 2 c-7 -8 -10 -25 -6 -40 6 -22 3 -25 -19 -25 -23 0 -25 4 -25 40 0 38
1 40 31 40 27 0 30 -2 19 -15z m80 -25 c0 -22 -4 -40 -10 -40 -5 0 -10 7 -10
15 0 8 -5 15 -11 15 -6 0 -8 -7 -5 -16 3 -9 1 -14 -5 -12 -6 2 -10 7 -10 11 1
4 1 21 1 37 0 25 4 30 25 30 23 0 25 -4 25 -40z m84 24 c17 -44 -5 -71 -45
-59 -19 6 -27 54 -12 68 12 13 51 7 57 -9z m864 9 c-21 -5 -23 -19 -5 -27 10
-5 10 -7 0 -12 -18 -8 -16 -22 5 -27 10 -3 6 -5 -10 -6 -26 -1 -28 2 -28 39 0
37 2 40 28 39 16 -1 20 -3 10 -6z m52 -8 c0 -8 5 -15 10 -15 6 0 10 7 10 15 0
8 6 15 13 15 8 0 13 -9 11 -22 -1 -13 -3 -31 -3 -40 -1 -22 -21 -24 -21 -3 0
8 -4 15 -10 15 -5 0 -10 -7 -10 -15 0 -8 -4 -15 -10 -15 -5 0 -10 18 -10 40 0
22 5 40 10 40 6 0 10 -7 10 -15z m89 -2 c10 -17 10 -17 11 0 0 9 7 17 15 17
17 0 21 -46 6 -69 -7 -10 -12 -8 -25 10 l-16 23 0 -22 c0 -12 -4 -22 -10 -22
-5 0 -10 18 -10 40 0 42 12 52 29 23z m82 0 c1 -17 2 -17 6 0 5 19 29 18 27
-1 -1 -7 -2 -24 -3 -39 l-1 -28 -20 25 -20 25 -1 -25 -1 -25 -10 28 c-11 30
-5 57 12 57 5 0 11 -8 11 -17z m-3421 -3 c0 -5 -4 -10 -10 -10 -5 0 -10 5 -10
10 0 6 5 10 10 10 6 0 10 -4 10 -10z m400 0 c0 -5 -4 -10 -10 -10 -5 0 -10 5
-10 10 0 6 5 10 10 10 6 0 10 -4 10 -10z m80 0 c0 -5 -4 -10 -10 -10 -5 0 -10
5 -10 10 0 6 5 10 10 10 6 0 10 -4 10 -10z m80 0 c0 -5 -4 -10 -10 -10 -5 0
-10 5 -10 10 0 6 5 10 10 10 6 0 10 -4 10 -10z m80 0 c0 -5 -4 -10 -10 -10 -5
0 -10 5 -10 10 0 6 5 10 10 10 6 0 10 -4 10 -10z m80 0 c0 -5 -4 -10 -10 -10
-5 0 -10 5 -10 10 0 6 5 10 10 10 6 0 10 -4 10 -10z m80 0 c0 -5 -4 -10 -10
-10 -5 0 -10 5 -10 10 0 6 5 10 10 10 6 0 10 -4 10 -10z m80 0 c0 -5 -4 -10
-10 -10 -5 0 -10 5 -10 10 0 6 5 10 10 10 6 0 10 -4 10 -10z m80 0 c0 -5 -4
-10 -10 -10 -5 0 -10 5 -10 10 0 6 5 10 10 10 6 0 10 -4 10 -10z m80 6 c0 -3
-4 -8 -10 -11 -5 -3 -10 -1 -10 4 0 6 5 11 10 11 6 0 10 -2 10 -4z m80 -6 c0
-5 -4 -10 -10 -10 -5 0 -10 5 -10 10 0 6 5 10 10 10 6 0 10 -4 10 -10z m320 0
c0 -5 -4 -10 -10 -10 -5 0 -10 5 -10 10 0 6 5 10 10 10 6 0 10 -4 10 -10z m80
0 c0 -5 -4 -10 -10 -10 -5 0 -10 5 -10 10 0 6 5 10 10 10 6 0 10 -4 10 -10z
m75 0 c3 -5 2 -10 -4 -10 -5 0 -13 5 -16 10 -3 6 -2 10 4 10 5 0 13 -4 16 -10z
m312 -12 c-3 -8 -6 -5 -6 6 -1 11 2 17 5 13 3 -3 4 -12 1 -19z m1600 0 c-3 -8
-6 -5 -6 6 -1 11 2 17 5 13 3 -3 4 -12 1 -19z m-2237 -15 c0 -5 -5 -15 -10
-23 -8 -12 -10 -11 -10 8 0 12 5 22 10 22 6 0 10 -3 10 -7z m-710 -18 c0 -8
-4 -15 -10 -15 -5 0 -10 7 -10 15 0 8 5 15 10 15 6 0 10 -7 10 -15z m160 0 c0
-8 -4 -15 -10 -15 -5 0 -10 7 -10 15 0 8 5 15 10 15 6 0 10 -7 10 -15z m467
-7 c-3 -8 -6 -5 -6 6 -1 11 2 17 5 13 3 -3 4 -12 1 -19z m253 7 c0 -8 -4 -15
-10 -15 -5 0 -10 7 -10 15 0 8 5 15 10 15 6 0 10 -7 10 -15z m80 -6 c0 -5 -7
-9 -15 -9 -15 0 -20 12 -9 23 8 8 24 -1 24 -14z m-1520 1 c0 -5 -4 -10 -10
-10 -5 0 -10 5 -10 10 0 6 5 10 10 10 6 0 10 -4 10 -10z m400 0 c0 -5 -4 -10
-10 -10 -5 0 -10 5 -10 10 0 6 5 10 10 10 6 0 10 -4 10 -10z m80 0 c0 -5 -4
-10 -10 -10 -5 0 -10 5 -10 10 0 6 5 10 10 10 6 0 10 -4 10 -10z m160 0 c0 -5
-4 -10 -10 -10 -5 0 -10 5 -10 10 0 6 5 10 10 10 6 0 10 -4 10 -10z m160 0 c0
-5 -4 -10 -10 -10 -5 0 -10 5 -10 10 0 6 5 10 10 10 6 0 10 -4 10 -10z m80 0
c0 -5 -4 -10 -10 -10 -5 0 -10 5 -10 10 0 6 5 10 10 10 6 0 10 -4 10 -10z
m160 0 c0 -5 -4 -10 -9 -10 -6 0 -13 5 -16 10 -3 6 1 10 9 10 9 0 16 -4 16
-10z m80 6 c0 -11 -19 -15 -25 -6 -3 5 1 10 9 10 9 0 16 -2 16 -4z m170 -6 c0
-5 -2 -10 -4 -10 -3 0 -8 5 -11 10 -3 6 -1 10 4 10 6 0 11 -4 11 -10z m-1195
-60 c3 -6 -4 -10 -17 -10 -21 -1 -22 -2 -5 -14 9 -7 17 -16 17 -19 0 -3 -8 -8
-17 -10 -14 -4 -12 -5 5 -6 12 0 22 -6 22 -12 0 -6 -12 -9 -27 -7 -22 2 -29 9
-31 31 -2 16 -1 35 2 43 6 16 42 19 51 4z m45 -5 c0 -8 5 -15 10 -15 6 0 10 7
10 15 0 8 5 15 10 15 6 0 10 -20 10 -45 0 -25 -4 -45 -10 -45 -5 0 -10 9 -10
20 0 11 -4 20 -10 20 -5 0 -10 -9 -10 -20 0 -11 -4 -20 -10 -20 -5 0 -10 20
-10 45 0 25 5 45 10 45 6 0 10 -7 10 -15z m80 -5 c0 -11 5 -20 11 -20 6 0 9 6
6 14 -7 19 3 28 18 16 13 -11 8 -80 -6 -80 -5 0 -14 10 -19 23 l-9 22 0 -22
c-2 -44 -21 -23 -21 22 0 25 5 45 10 45 6 0 10 -9 10 -20z m115 -25 c0 -36 -2
-40 -25 -40 -20 0 -26 6 -28 28 -5 42 5 59 30 55 20 -3 23 -9 23 -43z m1680
35 c3 -5 -3 -10 -14 -10 -12 0 -21 -4 -21 -10 0 -5 7 -10 16 -10 8 0 12 -5 9
-10 -4 -6 -10 -8 -15 -5 -5 3 -11 1 -15 -5 -3 -5 3 -10 14 -10 12 0 21 -4 21
-10 0 -5 -11 -10 -25 -10 -23 0 -25 4 -25 45 0 41 2 45 24 45 14 0 28 -4 31
-10z m51 -23 c8 3 14 11 14 19 0 8 5 14 10 14 6 0 10 -18 10 -40 0 -22 -4 -40
-10 -40 -5 0 -10 7 -10 15 0 23 -20 18 -29 -7 -8 -21 -9 -20 -16 14 -4 20 -3
43 1 50 7 10 10 7 12 -9 2 -14 8 -20 18 -16z m101 19 c-12 -9 -14 -16 -8 -21
17 -10 13 -25 -6 -26 -14 0 -13 -2 5 -9 30 -13 28 -20 -8 -20 -29 0 -30 2 -30
45 0 44 1 45 33 45 29 -1 30 -2 14 -14z m81 -31 c0 -25 -5 -45 -10 -45 -4 0
-8 7 -8 15 0 8 -4 15 -10 15 -5 0 -9 -4 -7 -9 1 -5 -2 -10 -8 -10 -11 -2 -19
44 -11 65 3 8 17 14 31 14 23 0 25 -3 23 -45z m82 12 c0 -18 -5 -38 -12 -45
-17 -17 -48 4 -48 33 0 27 16 34 22 10 2 -11 7 -12 18 -4 11 8 12 12 2 16 -13
5 -7 23 9 23 5 0 9 -15 9 -33z m890 19 c0 -8 -8 -13 -17 -11 -10 1 -13 0 -7
-2 14 -5 26 -42 18 -55 -3 -4 -16 -8 -30 -8 -22 0 -24 4 -24 45 0 43 1 45 30
45 19 0 30 -5 30 -14z m33 -5 c-2 -6 2 -11 7 -11 6 0 10 7 10 15 0 17 16 20
25 4 9 -14 -4 -79 -15 -79 -6 0 -10 10 -11 23 l0 22 -9 -22 c-15 -38 -30 -26
-30 23 0 32 4 44 13 41 6 -2 11 -10 10 -16z m101 4 c3 9 10 13 16 10 11 -7 13
-45 4 -70 -6 -14 -8 -14 -25 1 -18 16 -19 16 -19 0 0 -9 -4 -14 -10 -11 -11 7
-14 68 -3 79 4 4 13 0 19 -9 11 -14 12 -14 18 0z m61 -6 c-4 -5 1 -9 9 -9 8 0
17 8 19 18 3 9 5 -5 6 -33 l1 -50 -20 25 -20 25 0 -25 c-1 -23 -2 -23 -9 -5
-5 11 -7 31 -5 45 3 33 3 32 14 25 6 -4 8 -11 5 -16z m-2999 -4 c10 -26 -5
-65 -25 -65 -27 0 -44 26 -37 55 5 18 13 25 32 25 13 0 27 -7 30 -15z m-416
-15 c0 -5 -2 -10 -4 -10 -3 0 -8 5 -11 10 -3 6 -1 10 4 10 6 0 11 -4 11 -10z
m1907 -42 c-3 -8 -6 -5 -6 6 -1 11 2 17 5 13 3 -3 4 -12 1 -19z m-1807 -53 c0
-3 -10 -10 -22 -15 -18 -7 -19 -9 -5 -9 21 -1 23 -21 2 -21 -8 0 -15 -4 -15
-10 0 -5 9 -10 21 -10 11 0 18 -4 15 -9 -3 -5 -15 -7 -26 -4 -16 4 -20 14 -20
44 0 35 3 39 25 39 14 0 25 -2 25 -5z m40 -10 c0 -8 5 -15 10 -15 6 0 10 7 10
15 0 8 5 15 10 15 6 0 10 -21 10 -46 0 -27 -4 -43 -10 -39 -5 3 -10 13 -10 21
0 8 -4 14 -10 14 -5 0 -10 -9 -10 -21 0 -11 -4 -17 -10 -14 -5 3 -10 24 -10
46 0 21 5 39 10 39 6 0 10 -7 10 -15z m122 4 c3 -9 10 -8 25 1 30 19 49 7 51
-33 1 -28 -3 -37 -18 -42 -27 -9 -40 2 -40 31 0 13 -4 24 -10 24 -5 0 -10 -13
-10 -30 0 -33 -14 -39 -29 -12 -10 16 -10 16 -11 0 0 -10 -4 -18 -10 -18 -5 0
-10 20 -10 45 0 43 1 45 29 45 16 0 31 -5 33 -11z m1748 1 c0 -5 -8 -10 -17
-10 -15 0 -14 -2 3 -15 17 -13 17 -14 2 -15 -22 0 -24 -20 -3 -20 8 0 15 -4
15 -10 0 -11 -11 -13 -34 -4 -11 4 -16 19 -16 45 0 35 3 39 25 39 14 0 25 -4
25 -10z m56 -20 c8 0 14 7 14 15 0 8 5 15 10 15 6 0 10 -18 10 -39 0 -22 -4
-43 -10 -46 -5 -3 -10 3 -10 14 0 28 -28 27 -33 -1 -2 -13 -4 0 -4 27 -1 28 1
42 4 33 2 -10 11 -18 19 -18z m104 20 c0 -5 -8 -10 -17 -10 -15 0 -14 -2 3
-15 17 -13 17 -14 2 -15 -22 0 -24 -20 -3 -20 8 0 15 -4 15 -10 0 -5 -11 -10
-25 -10 -23 0 -25 4 -25 45 0 41 2 45 25 45 14 0 25 -4 25 -10z m82 -12 c6
-41 -3 -68 -23 -68 -20 0 -39 33 -33 60 1 8 3 18 3 23 1 4 12 7 25 7 18 0 26
-6 28 -22z m958 12 c0 -5 -10 -11 -22 -11 -17 -1 -19 -2 -5 -6 9 -2 17 -7 17
-10 0 -3 -8 -12 -17 -19 -17 -12 -16 -13 7 -14 18 0 21 -3 13 -11 -22 -22 -43
-2 -43 41 0 36 2 40 25 40 14 0 25 -4 25 -10z m40 -5 c0 -8 5 -15 10 -15 6 0
10 7 10 15 0 8 5 15 10 15 6 0 10 -21 10 -46 0 -27 -4 -43 -10 -39 -5 3 -10
13 -10 21 0 8 -4 14 -10 14 -5 0 -10 -7 -10 -15 0 -8 -4 -15 -10 -15 -5 0 -10
18 -10 40 0 22 5 40 10 40 6 0 10 -7 10 -15z m89 -2 c10 -17 10 -17 11 0 0 9
4 17 9 17 17 0 23 -21 16 -56 l-6 -36 -20 23 -19 22 0 -24 c0 -19 -2 -21 -10
-9 -13 19 -13 80 0 80 5 0 14 -8 19 -17z m82 0 c1 -17 2 -17 6 0 8 32 23 17
23 -23 0 -22 -4 -40 -10 -40 -5 0 -10 7 -10 15 0 8 -4 15 -10 15 -5 0 -10 -10
-10 -22 0 -35 -8 -16 -13 30 -3 31 0 42 10 42 7 0 14 -8 14 -17z m-3003 -24
c4 -34 -20 -54 -47 -39 -38 20 -18 74 24 68 13 -2 21 -12 23 -29z m1907 -4 c0
-34 -17 -42 -39 -19 -16 15 -16 18 0 35 23 26 39 19 39 -16z m-2325 -25 c0 -5
-5 -10 -11 -10 -5 0 -7 5 -4 10 3 6 8 10 11 10 2 0 4 -4 4 -10z m3510 -6 c0
-8 -5 -12 -10 -9 -6 4 -8 11 -5 16 9 14 15 11 15 -7z m-3430 -66 c-21 -9 -22
-12 -7 -15 21 -5 23 -23 2 -23 -23 0 -18 -18 8 -23 16 -3 13 -5 -10 -6 -32 -1
-33 0 -33 39 0 39 1 40 33 39 32 0 32 0 7 -11z m60 -3 c0 -8 5 -15 10 -15 6 0
10 7 10 15 0 8 5 15 10 15 6 0 10 -18 10 -40 0 -22 -4 -40 -10 -40 -5 0 -10 7
-10 15 0 8 -4 15 -10 15 -5 0 -10 -7 -10 -15 0 -8 -4 -15 -10 -15 -5 0 -10 18
-10 40 0 22 5 40 10 40 6 0 10 -7 10 -15z m120 -25 c0 -29 -4 -40 -15 -40 -8
0 -16 8 -16 18 -1 16 -2 16 -6 0 -8 -33 -23 -18 -23 22 0 38 2 40 30 40 28 0
30 -2 30 -40z m78 -3 c2 -37 1 -38 -25 -35 -25 3 -28 8 -31 41 -3 37 -2 38 25
35 24 -3 28 -8 31 -41z m80 11 c2 -16 -1 -28 -7 -28 -6 0 -11 11 -11 25 0 14
-4 25 -9 25 -4 0 -7 -12 -4 -27 3 -24 2 -25 -6 -8 -8 17 -10 18 -10 3 -1 -24
-21 -23 -21 0 0 48 63 56 68 10z m1580 25 c-19 -5 -25 -23 -8 -23 6 0 10 -4
10 -10 0 -5 -7 -10 -15 -10 -26 0 -16 -19 13 -23 25 -4 25 -4 -5 -6 -32 -1
-33 0 -33 39 0 37 2 40 28 39 16 -1 20 -3 10 -6z m52 -8 c0 -8 7 -15 15 -15 8
0 15 7 15 15 0 8 5 15 10 15 6 0 10 -18 10 -40 0 -22 -4 -40 -10 -40 -5 0 -10
7 -10 15 0 21 -28 19 -32 -2 -3 -10 -6 1 -9 25 -2 23 -1 42 3 42 5 0 8 -7 8
-15z m104 0 c-11 -8 -14 -15 -6 -15 17 0 15 -20 -3 -20 -23 0 -18 -18 8 -23
19 -4 18 -4 -5 -6 -26 -1 -28 2 -28 39 0 37 2 40 27 40 26 0 26 -1 7 -15z m91
5 c3 -5 -3 -10 -14 -10 -16 0 -21 -6 -21 -25 0 -14 5 -25 10 -25 6 0 10 7 8
16 -2 10 3 19 10 21 7 3 12 -5 12 -21 0 -21 -5 -26 -24 -26 -28 0 -34 11 -28
52 4 28 34 40 47 18z m81 -5 c10 -25 -5 -67 -23 -63 -30 6 -39 35 -19 57 23
25 35 26 42 6z m884 5 c0 -5 -10 -11 -22 -11 -17 -1 -19 -2 -5 -6 18 -5 24
-23 7 -23 -5 0 -10 -5 -10 -11 0 -6 7 -9 15 -5 8 3 15 1 15 -4 0 -6 -11 -10
-25 -10 -22 0 -25 4 -25 40 0 36 3 40 25 40 14 0 25 -4 25 -10z m40 -5 c0 -8
4 -15 9 -15 5 0 11 7 15 15 11 29 21 14 18 -25 -4 -37 -22 -58 -22 -25 0 8 -4
15 -10 15 -5 0 -10 -7 -10 -15 0 -8 -4 -15 -10 -15 -5 0 -10 18 -10 40 0 22 5
40 10 40 6 0 10 -7 10 -15z m84 3 c5 -10 7 -10 12 0 3 6 13 12 21 12 11 0 14
-6 9 -22 -3 -13 -6 -32 -6 -43 0 -17 -2 -17 -10 -5 -5 8 -10 11 -10 5 0 -5 -5
-3 -10 5 -8 13 -10 12 -10 -2 0 -10 -4 -18 -10 -18 -5 0 -10 18 -10 40 0 39
12 53 24 28z m96 -5 c0 9 5 17 10 17 6 0 10 -18 10 -40 0 -22 -4 -40 -10 -40
-5 0 -10 7 -10 15 0 21 -20 19 -21 -2 0 -14 -2 -14 -9 4 -5 11 -6 31 -3 44 6
21 7 21 20 4 12 -17 13 -17 13 -2z m-1510 -14 c0 -5 -4 -9 -10 -9 -5 0 -10 7
-10 16 0 8 5 12 10 9 6 -3 10 -10 10 -16z m-1920 1 c0 -5 -4 -10 -10 -10 -5 0
-10 5 -10 10 0 6 5 10 10 10 6 0 10 -4 10 -10z m0 -40 c0 -5 -4 -10 -10 -10
-5 0 -10 5 -10 10 0 6 5 10 10 10 6 0 10 -4 10 -10z m1920 0 c0 -5 -4 -10 -10
-10 -5 0 -10 5 -10 10 0 6 5 10 10 10 6 0 10 -4 10 -10z m-1517 -7 c-7 -2 -19
-2 -25 0 -7 3 -2 5 12 5 14 0 19 -2 13 -5z m-143 -94 c0 -28 -4 -39 -12 -36
-7 2 -12 10 -10 16 1 6 -2 11 -8 11 -5 0 -10 -7 -10 -15 0 -8 -4 -15 -10 -15
-5 0 -10 18 -10 39 0 33 4 40 23 43 33 6 37 1 37 -43z m78 2 c-3 -30 -7 -36
-27 -36 -19 0 -24 6 -27 30 -5 44 1 53 31 47 23 -4 26 -9 23 -41z m1728 9 c8
0 14 7 14 15 0 8 5 15 10 15 6 0 10 -18 10 -40 0 -22 -4 -40 -10 -40 -5 0 -10
9 -10 20 0 27 -19 26 -29 -2 -12 -34 -24 -3 -15 40 6 29 9 32 12 15 2 -13 10
-23 18 -23z m182 22 c3 -9 -3 -12 -14 -10 -14 2 -20 -4 -22 -24 -3 -22 1 -28
15 -27 10 0 13 3 6 6 -18 7 -16 33 2 33 9 0 15 -9 15 -25 0 -20 -5 -25 -24
-25 -28 0 -39 30 -25 67 10 26 39 29 47 5z m963 8 c5 0 9 -4 9 -9 0 -5 -9 -7
-20 -4 -11 3 -20 0 -20 -6 0 -6 5 -11 10 -11 6 0 10 -4 10 -10 0 -5 -7 -10
-16 -10 -8 0 -13 -4 -9 -10 3 -5 12 -7 20 -3 8 3 15 0 15 -6 0 -6 -11 -11 -25
-11 -22 0 -25 4 -25 38 0 43 7 55 28 47 7 -3 18 -5 23 -5z m56 -17 c3 9 11 17
19 17 10 0 14 -10 12 -37 -3 -37 -28 -60 -28 -26 -1 17 -1 17 -14 1 -20 -27
-26 -22 -26 20 0 47 11 61 24 30 8 -19 10 -20 13 -5z m-3184 10 c-26 -5 -31
-23 -8 -23 8 0 15 -4 15 -10 0 -5 -7 -10 -16 -10 -8 0 -12 -5 -9 -10 4 -6 10
-8 15 -5 5 3 12 0 15 -6 5 -7 -3 -9 -21 -7 -26 3 -29 8 -32 41 -3 36 -2 37 30
36 23 -1 26 -3 11 -6z m57 -8 c0 -8 5 -15 10 -15 6 0 10 7 10 15 0 8 5 15 10
15 6 0 10 -18 10 -40 0 -22 -4 -40 -10 -40 -5 0 -10 9 -10 20 0 11 -4 20 -10
20 -5 0 -10 -9 -10 -20 0 -11 -4 -20 -10 -20 -5 0 -10 18 -10 40 0 22 5 40 10
40 6 0 10 -7 10 -15z m278 -17 c2 -17 -1 -28 -9 -28 -7 0 -9 10 -7 25 3 16 1
25 -7 25 -8 0 -11 -10 -8 -27 3 -24 2 -25 -6 -8 -8 17 -10 18 -10 3 -1 -10 -5
-18 -9 -18 -5 0 -9 8 -9 18 -1 48 60 57 65 10z m1577 22 c-25 -6 -27 -8 -12
-14 21 -10 23 -26 2 -26 -26 0 -16 -19 13 -23 25 -4 25 -4 -5 -6 -32 -1 -33 0
-33 39 0 39 1 40 33 39 l32 -1 -30 -8z m168 3 c-27 -5 -31 -23 -6 -23 15 0 14
-2 -3 -14 -18 -14 -18 -15 6 -25 24 -10 24 -10 -7 -10 -32 -1 -33 0 -33 39 0
39 1 40 33 39 23 -1 26 -3 10 -6z m165 -23 c3 -37 -13 -58 -35 -44 -17 11 -19
29 -8 62 8 23 40 9 43 -18z m1011 13 c10 -17 10 -17 11 0 0 9 7 17 15 17 10 0
15 -10 15 -34 0 -38 -17 -56 -32 -35 -7 11 -11 11 -15 2 -10 -27 -23 -11 -23
27 0 42 12 52 29 23z m81 0 c0 -15 2 -14 15 3 13 18 14 16 15 -23 0 -46 -13
-57 -25 -20 l-7 22 -7 -25 c-10 -35 -24 -8 -16 30 7 32 25 41 25 13z m-1500
-7 c0 -3 -4 -8 -10 -11 -5 -3 -10 -1 -10 4 0 6 5 11 10 11 6 0 10 -2 10 -4z
m-1920 -46 c0 -5 -4 -10 -10 -10 -5 0 -10 5 -10 10 0 6 5 10 10 10 6 0 10 -4
10 -10z m1920 0 c0 -5 -4 -10 -10 -10 -5 0 -10 5 -10 10 0 6 5 10 10 10 6 0
10 -4 10 -10z m-1517 -7 c-7 -2 -19 -2 -25 0 -7 3 -2 5 12 5 14 0 19 -2 13 -5z
m-303 -53 c0 -5 -10 -10 -22 -10 -22 -1 -23 -1 -4 -15 17 -13 18 -15 3 -15 -9
0 -17 -7 -17 -16 0 -10 6 -14 15 -11 8 4 17 2 20 -3 4 -6 -5 -10 -19 -10 -14
0 -26 3 -27 8 0 4 -2 20 -4 36 -2 16 -2 33 1 38 7 12 54 10 54 -2z m40 -10 c0
-27 16 -25 25 3 l8 22 4 -22 c2 -13 2 -35 0 -50 -4 -27 -4 -27 -12 -5 -9 27
-25 29 -25 2 0 -11 -4 -20 -10 -20 -5 0 -10 20 -10 45 0 25 5 45 10 45 6 0 10
-9 10 -20z m91 -20 c5 0 9 9 9 20 0 11 5 20 10 20 6 0 10 -20 10 -45 0 -25 -4
-45 -10 -45 -5 0 -10 7 -10 15 0 20 -10 19 -26 -2 -12 -16 -13 -13 -14 23 0
44 13 69 18 35 2 -12 8 -21 13 -21z m104 4 c8 -44 -6 -64 -33 -48 -21 14 -28
64 -10 75 25 16 36 9 43 -27z m1675 26 c0 -5 -8 -10 -17 -11 -11 0 -13 -3 -5
-6 17 -7 15 -23 -3 -23 -23 0 -18 -19 8 -30 21 -8 21 -9 -5 -9 -27 -1 -28 1
-28 44 0 41 2 45 25 45 14 0 25 -4 25 -10z m56 -30 c8 0 14 7 14 15 0 8 5 15
10 15 6 0 10 -18 10 -40 0 -22 -4 -40 -10 -40 -5 0 -10 9 -10 20 0 11 -7 20
-15 20 -9 0 -15 -9 -15 -22 0 -14 -3 -19 -10 -12 -5 5 -6 27 -3 49 5 28 8 33
11 18 2 -13 10 -23 18 -23z m104 30 c0 -5 -7 -10 -15 -10 -8 0 -15 -5 -15 -11
0 -5 5 -7 10 -4 6 3 10 1 10 -4 0 -6 -4 -11 -10 -11 -5 0 -10 -4 -10 -10 0 -5
7 -10 15 -10 8 0 15 -4 15 -10 0 -5 -11 -10 -25 -10 -22 0 -25 4 -25 38 0 21
3 42 7 45 10 11 43 8 43 -3z m78 -9 c3 -10 0 -12 -11 -8 -9 3 -19 2 -22 -3 -4
-6 2 -10 13 -10 25 0 31 -7 25 -31 -9 -32 -47 -21 -51 14 -2 16 -1 35 2 44 7
18 37 14 44 -6z m962 7 c0 -4 -9 -8 -21 -8 -11 0 -17 -5 -14 -10 4 -6 11 -8
16 -5 16 11 9 -7 -8 -21 -17 -12 -16 -13 5 -14 12 0 22 -4 22 -10 0 -5 -11
-10 -25 -10 -23 0 -25 4 -25 45 0 42 2 45 25 43 14 -1 25 -6 25 -10z m40 -8
c0 -27 16 -25 24 3 l7 22 9 -23 c8 -20 8 -31 1 -72 -1 -3 -10 6 -21 20 l-20
25 0 -23 c0 -13 -4 -20 -10 -17 -5 3 -10 24 -10 46 0 21 5 39 10 39 6 0 10 -9
10 -20z m100 -2 c0 12 4 22 10 22 14 0 23 -45 15 -71 l-8 -23 -18 23 -19 23 0
-21 c0 -12 -4 -19 -10 -16 -11 7 -14 68 -3 79 4 3 13 -4 20 -16 l12 -23 1 23z
m70 -6 c1 -12 5 -10 15 8 14 25 14 24 15 -17 0 -24 -4 -43 -10 -43 -5 0 -10 7
-10 15 0 24 -20 17 -21 -7 -1 -22 -1 -22 -8 2 -9 30 -2 72 10 64 5 -3 9 -13 9
-22z m-3002 -13 c6 -50 -52 -63 -64 -13 -8 32 3 46 34 42 21 -2 28 -9 30 -29z
m1910 1 c3 -37 -13 -58 -35 -44 -22 14 -29 54 -11 65 22 15 43 5 46 -21z
m-413 10 c3 -5 1 -10 -4 -10 -6 0 -11 5 -11 10 0 6 2 10 4 10 3 0 8 -4 11 -10z
m-1915 -40 c0 -5 -5 -10 -11 -10 -5 0 -7 5 -4 10 3 6 8 10 11 10 2 0 4 -4 4
-10z m1920 0 c0 -5 -4 -10 -10 -10 -5 0 -10 5 -10 10 0 6 5 10 10 10 6 0 10
-4 10 -10z m-1820 -70 c0 -5 -10 -10 -22 -10 -21 0 -21 0 -2 -15 17 -13 17
-14 2 -15 -26 0 -22 -18 5 -23 19 -4 18 -4 -5 -6 -22 -1 -29 4 -34 24 -3 14
-4 32 0 40 6 17 56 21 56 5z m40 -5 c0 -8 5 -15 10 -15 6 0 10 7 10 15 0 8 5
15 10 15 6 0 10 -18 10 -40 0 -22 -4 -40 -10 -40 -5 0 -10 7 -10 15 0 8 -4 15
-10 15 -5 0 -10 -7 -10 -15 0 -8 -4 -15 -10 -15 -5 0 -10 18 -10 40 0 22 5 40
10 40 6 0 10 -7 10 -15z m80 0 c0 -8 5 -15 11 -15 6 0 9 7 5 15 -3 9 0 15 9
15 11 0 15 -11 15 -40 0 -29 -4 -40 -15 -40 -8 0 -16 8 -16 18 -1 16 -2 16 -6
0 -8 -33 -23 -18 -23 22 0 22 5 40 10 40 6 0 10 -7 10 -15z m110 5 c0 -5 -7
-10 -15 -10 -8 0 -15 -4 -15 -9 0 -5 8 -8 17 -7 21 1 30 -33 12 -45 -21 -13
-49 9 -49 40 0 15 3 31 7 34 10 11 43 8 43 -3z m85 -10 c10 -33 -4 -62 -28
-58 -26 4 -35 40 -15 62 18 21 36 20 43 -4z m631 5 c10 -24 -5 -65 -22 -65
-14 0 -14 3 -4 15 9 10 9 15 1 15 -6 0 -11 8 -11 18 0 32 26 44 36 17z m85 8
c7 -52 3 -68 -18 -71 -20 -3 -23 1 -23 31 0 18 3 37 7 40 9 9 33 9 34 0z m81
-28 c10 -38 -12 -66 -36 -46 -14 12 -19 54 -8 74 9 18 36 0 44 -28z m74 23 c5
-7 9 -24 9 -38 0 -20 -6 -26 -27 -28 -27 -3 -28 -1 -28 37 0 33 3 41 19 41 10
0 23 -6 27 -12z m724 2 c0 -5 -10 -11 -22 -11 -17 -1 -19 -2 -5 -6 21 -5 23
-23 2 -23 -23 0 -18 -18 8 -23 19 -4 18 -4 -5 -6 -26 -1 -28 2 -28 39 0 36 3
40 25 40 14 0 25 -4 25 -10z m43 -10 c3 -11 10 -20 16 -20 6 0 11 9 11 20 0
11 5 20 10 20 6 0 10 -18 10 -40 0 -22 -4 -40 -10 -40 -5 0 -10 7 -10 15 0 21
-30 19 -31 -2 0 -15 -2 -15 -9 2 -11 27 -12 65 -1 65 5 0 11 -9 14 -20z m117
10 c0 -5 -7 -10 -15 -10 -8 0 -15 -4 -15 -10 0 -5 6 -9 12 -7 7 1 14 -8 16
-20 3 -19 -1 -23 -22 -23 -24 0 -26 4 -26 40 0 36 3 40 25 40 14 0 25 -4 25
-10z m78 -31 c3 -42 -18 -58 -43 -33 -18 19 -19 46 -3 62 22 22 43 9 46 -29z
m137 5 c8 3 15 -5 18 -20 2 -13 0 -24 -4 -24 -5 0 -9 7 -9 15 0 21 -18 19 -23
-2 -3 -10 -5 2 -4 27 0 25 2 35 4 22 3 -14 10 -22 18 -18z m73 14 l11 -23 7
23 c11 36 25 25 22 -18 -1 -25 -7 -40 -15 -40 -7 0 -13 7 -13 15 0 8 -4 15
-10 15 -5 0 -10 -7 -10 -15 0 -8 -4 -15 -10 -15 -5 0 -10 18 -10 40 0 45 11
52 28 18z m77 5 c6 -17 7 -17 21 1 13 18 14 17 14 -22 0 -23 -4 -42 -10 -42
-5 0 -10 6 -10 14 0 8 -5 18 -11 22 -8 4 -9 0 -4 -15 4 -12 2 -21 -4 -21 -6 0
-11 4 -11 9 0 5 -3 23 -6 40 -7 33 9 44 21 14z m81 9 c-2 -4 -1 -14 5 -22 6
-10 9 -11 9 -2 0 29 16 9 17 -23 1 -19 -3 -35 -8 -35 -5 0 -9 8 -10 18 0 10
-3 12 -6 5 -10 -27 -32 -13 -31 20 1 37 5 47 19 47 6 0 8 -4 5 -8z m115 1 c7
-67 -4 -86 -43 -75 -14 3 -18 11 -14 26 3 11 6 29 6 39 0 11 8 17 25 17 14 0
25 -3 26 -7z m39 -14 c0 -11 4 -18 10 -14 5 3 6 13 3 22 -4 11 -2 14 8 11 8
-3 14 -19 15 -41 1 -41 -3 -45 -22 -19 -13 16 -13 16 -14 0 0 -38 -20 -16 -20
22 0 22 5 40 10 40 6 0 10 -9 10 -21z m86 4 c13 -17 13 -17 14 0 0 10 5 17 11
15 6 -2 10 -7 10 -11 -1 -4 -1 -20 -1 -37 0 -31 -20 -43 -20 -12 -1 16 -1 16
-14 0 -20 -27 -26 -22 -26 22 0 44 6 49 26 23z m84 2 c0 -8 6 -12 13 -10 8 4
13 -7 14 -30 3 -40 -4 -45 -17 -12 -7 18 -9 19 -9 4 -1 -10 -7 -17 -13 -15
-13 5 -20 42 -13 66 6 17 25 15 25 -3z m80 -15 c5 0 11 8 14 18 2 9 4 5 3 -9
-1 -14 4 -34 12 -43 11 -14 11 -16 -3 -16 -9 0 -16 6 -16 13 0 9 -3 8 -9 -2
-13 -20 -31 -4 -29 27 2 35 12 52 16 30 2 -10 7 -18 12 -18z m81 0 c5 0 9 8 9
17 0 13 3 14 12 5 8 -8 8 -15 -2 -27 -8 -10 -9 -15 -1 -15 6 0 11 -9 11 -20 0
-25 -9 -25 -26 -2 -8 10 -13 12 -14 5 0 -30 -20 -10 -20 20 0 36 13 59 18 33
2 -9 8 -16 13 -16z m109 20 c0 -5 -10 -11 -22 -11 -17 -1 -19 -2 -5 -6 18 -5
24 -23 7 -23 -17 0 -11 -18 8 -23 10 -3 6 -5 -10 -6 -26 -1 -28 2 -28 39 0 36
3 40 25 40 14 0 25 -4 25 -10z m40 -12 l1 -23 20 24 c25 30 33 22 25 -24 -7
-34 -26 -50 -26 -20 0 8 -4 15 -10 15 -5 0 -10 -7 -10 -15 0 -8 -4 -15 -10
-15 -5 0 -10 18 -10 40 0 22 5 40 10 40 6 0 10 -10 10 -22z m80 7 c0 -8 5 -15
10 -15 6 0 10 7 10 15 0 8 7 15 15 15 17 0 21 -55 6 -79 -7 -11 -11 -10 -20 5
-9 13 -14 15 -17 7 -11 -26 -24 -12 -24 27 0 22 5 40 10 40 6 0 10 -7 10 -15z
m107 3 c11 15 12 11 13 -25 0 -24 -4 -43 -10 -43 -5 0 -10 7 -10 15 0 8 -4 15
-10 15 -5 0 -10 -7 -10 -15 0 -8 -4 -15 -10 -15 -11 0 -13 24 -3 60 6 21 8 22
17 8 9 -15 11 -15 23 0z m-2957 -8 c0 -5 -5 -10 -11 -10 -5 0 -7 5 -4 10 3 6
8 10 11 10 2 0 4 -4 4 -10z m80 0 c0 -5 -4 -10 -10 -10 -5 0 -10 5 -10 10 0 6
5 10 10 10 6 0 10 -4 10 -10z m75 0 c3 -5 1 -10 -4 -10 -6 0 -11 5 -11 10 0 6
2 10 4 10 3 0 8 -4 11 -10z m85 -5 c0 -8 -4 -15 -10 -15 -5 0 -10 7 -10 15 0
8 5 15 10 15 6 0 10 -7 10 -15z m75 5 c3 -5 1 -10 -4 -10 -6 0 -11 5 -11 10 0
6 2 10 4 10 3 0 8 -4 11 -10z m85 -11 c0 -5 -4 -9 -10 -9 -5 0 -10 7 -10 16 0
8 5 12 10 9 6 -3 10 -10 10 -16z m80 6 c0 -8 -4 -15 -10 -15 -5 0 -10 7 -10
15 0 8 5 15 10 15 6 0 10 -7 10 -15z m-960 -5 c0 -5 -5 -10 -11 -10 -5 0 -7 5
-4 10 3 6 8 10 11 10 2 0 4 -4 4 -10z m2310 0 c0 -5 -5 -10 -11 -10 -5 0 -7 5
-4 10 3 6 8 10 11 10 2 0 4 -4 4 -10z m1200 0 c0 -5 -5 -10 -11 -10 -5 0 -7 5
-4 10 3 6 8 10 11 10 2 0 4 -4 4 -10z m-3510 -40 c0 -5 -4 -10 -10 -10 -5 0
-10 5 -10 10 0 6 5 10 10 10 6 0 10 -4 10 -10z m480 0 c0 -5 -4 -10 -10 -10
-5 0 -10 5 -10 10 0 6 5 10 10 10 6 0 10 -4 10 -10z m80 0 c0 -5 -4 -10 -10
-10 -5 0 -10 5 -10 10 0 6 5 10 10 10 6 0 10 -4 10 -10z m80 0 c0 -5 -4 -10
-10 -10 -5 0 -10 5 -10 10 0 6 5 10 10 10 6 0 10 -4 10 -10z m80 0 c0 -5 -4
-10 -10 -10 -5 0 -10 5 -10 10 0 6 5 10 10 10 6 0 10 -4 10 -10z m80 0 c0 -5
-4 -10 -10 -10 -5 0 -10 5 -10 10 0 6 5 10 10 10 6 0 10 -4 10 -10z m80 0 c0
-5 -4 -10 -10 -10 -5 0 -10 5 -10 10 0 6 5 10 10 10 6 0 10 -4 10 -10z m80 0
c0 -5 -4 -10 -10 -10 -5 0 -10 5 -10 10 0 6 5 10 10 10 6 0 10 -4 10 -10z
m960 1 c0 -6 -4 -13 -10 -16 -5 -3 -10 1 -10 9 0 9 5 16 10 16 6 0 10 -4 10
-9z m400 -1 c0 -5 -7 -10 -15 -10 -8 0 -15 5 -15 10 0 6 7 10 15 10 8 0 15 -4
15 -10z m-2237 -67 c-26 -5 -31 -23 -8 -23 8 0 15 -4 15 -10 0 -5 -7 -10 -15
-10 -23 0 -18 -18 8 -23 15 -4 13 -5 -8 -4 -29 2 -32 9 -26 67 1 6 13 9 29 9
23 -2 24 -2 5 -6z m57 -8 c0 -8 5 -15 10 -15 6 0 10 7 10 15 0 8 5 15 10 15 6
0 10 -18 10 -40 0 -22 -4 -40 -10 -40 -5 0 -10 7 -10 15 0 8 -4 15 -10 15 -5
0 -10 -7 -10 -15 0 -8 -4 -15 -10 -15 -5 0 -10 18 -10 40 0 22 5 40 10 40 6 0
10 -7 10 -15z m120 0 c0 -8 4 -15 9 -15 5 0 11 7 15 15 6 17 42 20 51 4 11
-17 -3 -23 -20 -9 -12 10 -15 10 -15 -4 0 -10 8 -16 21 -16 29 0 21 -34 -9
-38 -17 -3 -25 2 -29 17 -7 27 -23 27 -23 1 0 -25 -30 -27 -31 -2 -1 16 -2 16
-6 0 -8 -33 -23 -18 -23 22 0 38 2 40 30 40 20 0 30 -5 30 -15z m875 -25 c0
-30 -3 -35 -25 -35 -17 0 -26 7 -30 25 -8 31 7 52 34 48 17 -2 21 -10 21 -38z
m72 32 c7 -4 11 -21 10 -37 -2 -25 -7 -30 -27 -30 -19 0 -25 6 -27 25 -3 46
13 62 44 42z m67 -22 c3 0 6 7 6 15 0 8 5 15 10 15 6 0 10 -18 10 -40 0 -22
-4 -40 -10 -40 -5 0 -10 7 -10 15 0 8 -4 15 -10 15 -5 0 -10 -7 -10 -15 0 -8
-4 -15 -10 -15 -5 0 -10 19 -10 43 1 37 2 40 14 25 7 -10 16 -18 20 -18z m731
23 c-28 -7 -43 -23 -22 -23 9 0 17 -4 17 -10 0 -5 -7 -10 -15 -10 -26 0 -16
-19 13 -23 25 -4 25 -4 -5 -6 -32 -1 -33 0 -33 39 0 39 1 40 33 39 21 -1 25
-3 12 -6z m45 -8 c0 -8 7 -15 15 -15 8 0 15 7 15 15 0 8 5 15 10 15 6 0 10
-18 10 -40 0 -22 -4 -40 -10 -40 -5 0 -10 7 -10 15 0 8 -7 15 -15 15 -8 0 -15
-7 -15 -16 0 -8 -4 -12 -10 -9 -5 3 -10 22 -10 41 0 19 5 34 10 34 6 0 10 -7
10 -15z m91 3 c0 -10 2 -10 6 0 2 6 9 12 14 12 15 0 10 -20 -12 -43 l-20 -22
20 -3 c12 -2 21 -8 21 -13 0 -6 -10 -9 -22 -7 -19 2 -24 10 -26 46 -2 25 1 42
7 42 6 0 11 -6 12 -12z m107 0 c7 -7 12 -25 12 -40 0 -24 -4 -28 -29 -28 -21
0 -32 6 -36 20 -14 46 22 79 53 48z m133 -5 c1 -17 2 -17 6 0 5 18 23 24 23 8
0 -13 -34 -71 -41 -71 -4 0 -6 18 -6 40 0 39 16 58 18 23z m69 2 c0 -20 19
-19 27 2 6 15 7 15 14 -3 13 -33 10 -64 -7 -64 -8 0 -12 5 -9 10 3 6 -1 10 -9
10 -9 0 -16 -4 -16 -10 0 -5 -4 -10 -10 -10 -5 0 -10 18 -10 40 0 22 5 40 10
40 6 0 10 -7 10 -15z m84 -28 c3 -20 1 -37 -4 -37 -6 0 -10 19 -10 42 0 49 8
47 14 -5z m36 -4 c0 -27 -4 -43 -9 -37 -8 8 -4 84 5 84 2 0 4 -21 4 -47z m80
36 c0 -6 -7 -8 -16 -5 -13 5 -15 2 -11 -14 3 -11 1 -20 -5 -20 -5 0 -6 -5 -3
-11 4 -6 13 -8 21 -5 8 3 14 1 14 -4 0 -13 -50 -13 -51 0 -1 6 -1 21 -1 35 0
36 0 35 27 35 14 0 25 -5 25 -11z m77 -29 c-1 -40 -10 -51 -21 -27 -5 10 -7
10 -12 0 -12 -26 -24 -12 -24 27 0 38 2 40 29 40 28 0 30 -2 28 -40z m43 25
c0 -8 5 -15 10 -15 6 0 10 8 10 17 0 13 3 14 12 5 9 -9 9 -15 0 -24 -8 -8 -9
-15 0 -25 6 -7 8 -16 4 -20 -3 -4 -13 2 -21 13 -13 17 -14 17 -15 2 0 -38 -20
-16 -20 22 0 22 5 40 10 40 6 0 10 -7 10 -15z m81 0 c4 -49 2 -59 -9 -63 -8
-2 -12 9 -12 37 0 38 19 60 21 26z m39 -25 c0 -22 -4 -40 -10 -40 -11 0 -13
39 -4 64 10 26 14 19 14 -24z m80 29 c0 -6 -7 -9 -15 -6 -8 4 -17 2 -20 -2 -3
-5 3 -12 12 -15 14 -6 14 -8 -3 -22 -18 -15 -18 -15 4 -11 12 3 22 1 22 -4 0
-11 -50 -12 -51 -1 0 4 -2 18 -4 32 -1 14 -1 28 2 33 7 11 53 8 53 -4z m43
-11 c4 -23 4 -23 15 2 12 29 13 28 16 -22 3 -37 -7 -50 -18 -25 -5 10 -7 10
-12 0 -12 -26 -24 -12 -24 27 0 43 16 55 23 18z m77 5 c1 -16 2 -16 15 1 19
24 30 15 16 -13 -7 -13 -8 -22 -1 -26 5 -3 10 -13 10 -22 0 -14 -3 -14 -20 2
-11 10 -20 13 -20 7 0 -7 -4 -12 -10 -12 -5 0 -10 18 -10 40 0 38 20 60 20 23z
m108 10 c-21 -5 -23 -19 -5 -27 10 -5 10 -7 0 -12 -21 -9 -15 -24 9 -24 16 0
19 -3 11 -11 -6 -6 -20 -8 -32 -4 -17 5 -21 15 -21 46 0 36 2 39 28 38 16 -1
20 -3 10 -6z m52 -8 c0 -20 16 -19 24 1 10 25 26 6 26 -31 0 -39 -19 -57 -27
-26 -6 24 -23 28 -23 6 0 -8 -4 -15 -10 -15 -5 0 -10 18 -10 40 0 22 5 40 10
40 6 0 10 -7 10 -15z m86 -2 c13 -17 13 -17 14 0 0 9 7 17 15 17 11 0 15 -11
15 -40 0 -28 -4 -40 -14 -40 -8 0 -17 6 -20 13 -5 10 -7 10 -12 0 -12 -26 -24
-12 -24 27 0 44 6 49 26 23z m94 0 c0 37 20 15 20 -23 0 -44 -13 -53 -25 -17
l-8 22 -4 -22 c-2 -13 -9 -23 -14 -23 -10 0 -12 40 -3 64 6 15 8 15 20 -1 13
-17 13 -17 14 0z m-3030 -8 c0 -8 -4 -15 -10 -15 -5 0 -10 7 -10 15 0 8 5 15
10 15 6 0 10 -7 10 -15z m235 5 c3 -5 1 -10 -4 -10 -6 0 -11 5 -11 10 0 6 2
10 4 10 3 0 8 -4 11 -10z m80 0 c3 -5 1 -10 -4 -10 -6 0 -11 5 -11 10 0 6 2
10 4 10 3 0 8 -4 11 -10z m325 -5 c0 -8 -4 -15 -9 -15 -13 0 -22 16 -14 24 11
11 23 6 23 -9z m1285 4 c4 -5 1 -9 -5 -9 -6 0 -8 -10 -4 -25 5 -19 2 -25 -10
-25 -9 0 -16 8 -17 18 0 9 -2 24 -4 32 -3 17 31 25 40 9z m-2325 -9 c0 -5 -5
-10 -11 -10 -5 0 -7 5 -4 10 3 6 8 10 11 10 2 0 4 -4 4 -10z m400 -41 c0 -5
-4 -9 -10 -9 -5 0 -10 7 -10 16 0 8 5 12 10 9 6 -3 10 -10 10 -16z m640 6 c0
-8 -4 -15 -9 -15 -13 0 -22 16 -14 24 11 11 23 6 23 -9z m-1040 -5 c0 -5 -4
-10 -10 -10 -5 0 -10 5 -10 10 0 6 5 10 10 10 6 0 10 -4 10 -10z m480 6 c0 -3
-4 -8 -10 -11 -5 -3 -10 -1 -10 4 0 6 5 11 10 11 6 0 10 -2 10 -4z m80 -6 c0
-5 -4 -10 -10 -10 -5 0 -10 5 -10 10 0 6 5 10 10 10 6 0 10 -4 10 -10z m80 6
c0 -3 -4 -8 -10 -11 -5 -3 -10 -1 -10 4 0 6 5 11 10 11 6 0 10 -2 10 -4z m80
0 c0 -3 -4 -8 -10 -11 -5 -3 -10 -1 -10 4 0 6 5 11 10 11 6 0 10 -2 10 -4z
m80 0 c0 -3 -4 -8 -10 -11 -5 -3 -10 -1 -10 4 0 6 5 11 10 11 6 0 10 -2 10 -4z
m1120 0 c0 -3 -4 -8 -10 -11 -5 -3 -10 -1 -10 4 0 6 5 11 10 11 6 0 10 -2 10
-4z m490 -6 c0 -5 -4 -10 -10 -10 -5 0 -10 5 -10 10 0 6 5 10 10 10 6 0 10 -4
10 -10z m-166 -63 c12 -9 17 -23 14 -42 -2 -24 -8 -31 -29 -33 -25 -3 -27 0
-31 38 -5 54 8 65 46 37z m-2161 -4 c-26 -5 -31 -23 -8 -23 8 0 15 -4 15 -10
0 -5 -7 -10 -15 -10 -23 0 -18 -18 8 -23 16 -3 13 -5 -10 -6 -32 -1 -33 0 -33
39 0 39 1 40 33 39 23 -1 26 -3 10 -6z m57 -8 c0 -8 5 -15 10 -15 6 0 10 7 10
15 0 8 5 15 10 15 6 0 10 -18 10 -40 0 -22 -4 -40 -10 -40 -5 0 -10 7 -10 15
0 8 -4 15 -10 15 -5 0 -10 -7 -10 -15 0 -8 -4 -15 -10 -15 -5 0 -10 18 -10 40
0 22 5 40 10 40 6 0 10 -7 10 -15z m118 -26 c1 -38 -1 -40 -26 -37 -23 3 -27
8 -30 41 -3 35 -2 37 26 37 28 0 30 -2 30 -41z m76 33 c10 -16 -10 -67 -27
-70 -9 -2 -17 2 -17 8 0 6 5 8 10 5 6 -3 10 -1 10 4 0 6 -7 11 -15 11 -9 0
-15 9 -15 25 0 20 5 25 24 25 14 0 27 -4 30 -8z m930 -7 c-4 -8 -1 -15 5 -15
6 0 11 7 11 15 0 8 4 15 10 15 5 0 8 -17 7 -37 -2 -33 -5 -38 -29 -41 -27 -3
-28 -1 -28 37 0 29 4 41 15 41 9 0 12 -6 9 -15z m729 8 c-26 -5 -31 -23 -8
-23 8 0 15 -4 15 -10 0 -5 -7 -10 -15 -10 -26 0 -16 -19 13 -23 25 -4 25 -4
-5 -6 -32 -1 -33 0 -33 39 0 37 2 40 28 39 23 -2 24 -2 5 -6z m57 -8 c0 -8 7
-15 15 -15 8 0 15 7 15 15 0 8 5 15 10 15 6 0 10 -18 10 -40 0 -22 -4 -40 -10
-40 -5 0 -10 9 -10 20 0 13 -5 18 -15 14 -8 -4 -15 -12 -15 -20 0 -8 -3 -14
-7 -14 -5 0 -8 18 -8 40 0 22 3 40 8 40 4 0 7 -7 7 -15z m130 0 c0 -18 -17
-20 -23 -2 -4 10 -7 10 -18 0 -11 -11 -10 -13 4 -13 20 0 23 -16 5 -23 -7 -2
-10 -8 -5 -12 4 -5 14 0 23 11 15 19 15 19 12 -1 -2 -13 -12 -21 -28 -23 -23
-3 -25 1 -26 38 -1 38 0 40 27 40 19 0 29 -5 29 -15z m145 5 c3 -5 -2 -10 -12
-10 -17 -1 -17 -1 0 -11 27 -16 22 -49 -8 -49 -14 0 -25 5 -25 11 0 6 9 8 23
4 l22 -6 -22 20 c-26 22 -29 37 -10 44 19 8 25 8 32 -3z m695 -24 c8 -21 8
-21 17 3 6 16 12 20 17 13 8 -13 -15 -62 -37 -80 -11 -9 -14 -6 -14 21 0 17
-4 43 -8 56 -10 31 12 19 25 -13z m74 17 c6 -14 8 -14 21 3 13 17 14 17 15 2
0 -9 -5 -20 -10 -23 -8 -5 -7 -11 1 -21 6 -8 8 -18 4 -22 -4 -4 -10 -1 -12 6
-4 10 -8 10 -19 1 -19 -16 -30 -3 -14 16 10 12 10 19 2 27 -14 14 -16 28 -3
28 5 0 12 -7 15 -17z m101 7 c-25 -6 -27 -8 -12 -14 9 -5 17 -12 17 -16 0 -5
-8 -10 -17 -13 -15 -3 -14 -6 7 -15 l25 -11 -27 0 c-26 -1 -28 2 -28 39 0 39
1 40 33 39 l32 -1 -30 -8z m55 -5 c0 -8 5 -15 10 -15 6 0 10 7 10 15 0 8 7 15
15 15 16 0 19 -32 5 -65 -7 -18 -8 -19 -15 -2 -9 21 -25 23 -25 2 0 -8 -4 -15
-10 -15 -5 0 -10 18 -10 40 0 22 5 40 10 40 6 0 10 -7 10 -15z m88 3 c9 -9 12
-9 12 0 0 7 7 12 15 12 11 0 15 -11 15 -40 0 -43 -14 -52 -36 -22 -13 16 -13
16 -14 0 0 -38 -20 -16 -20 22 0 41 7 49 28 28z m81 -5 c10 -17 10 -17 11 0 0
9 5 17 10 17 6 0 10 -18 10 -40 0 -22 -4 -40 -10 -40 -5 0 -10 7 -10 15 0 8
-4 15 -10 15 -5 0 -10 -7 -10 -15 0 -8 -4 -15 -10 -15 -5 0 -10 18 -10 40 0
42 12 52 29 23z m-3019 -3 c0 -5 -4 -10 -10 -10 -5 0 -10 5 -10 10 0 6 5 10
10 10 6 0 10 -4 10 -10z m80 0 c0 -5 -4 -10 -10 -10 -5 0 -10 5 -10 10 0 6 5
10 10 10 6 0 10 -4 10 -10z m80 0 c0 -5 -4 -10 -10 -10 -5 0 -10 5 -10 10 0 6
5 10 10 10 6 0 10 -4 10 -10z m630 -6 c0 -8 -4 -12 -10 -9 -5 3 -10 10 -10 16
0 5 5 9 10 9 6 0 10 -7 10 -16z m1180 1 c0 -8 5 -15 11 -15 5 0 7 -5 3 -12 -4
-7 -3 -8 4 -4 7 4 12 16 12 27 0 10 5 19 10 19 15 0 12 -16 -10 -60 -24 -47
-42 -53 -34 -11 4 16 1 32 -5 35 -14 9 -15 36 -1 36 6 0 10 -7 10 -15z m93 -7
l16 -23 0 23 c1 21 21 33 21 12 0 -18 -40 -90 -50 -90 -5 0 -6 15 -3 34 3 19
1 36 -6 40 -6 4 -11 11 -11 17 0 16 17 10 33 -13z m78 0 l18 -23 1 23 c0 12 5
22 10 22 6 0 10 -5 10 -10 0 -16 -31 -74 -44 -82 -16 -10 -19 -2 -7 20 8 14 7
24 -4 38 -28 37 -14 47 16 12z m80 0 l18 -23 1 23 c0 12 5 22 10 22 16 0 12
-19 -12 -61 -28 -49 -53 -56 -27 -8 8 16 7 25 -5 38 -9 10 -16 21 -16 24 0 13
12 7 31 -15z m74 2 c3 -11 11 -20 16 -20 5 0 9 9 9 20 0 11 5 20 10 20 15 0
12 -16 -10 -60 -25 -49 -41 -52 -33 -6 3 19 1 36 -6 40 -13 9 -15 26 -2 26 5
0 13 -9 16 -20z m82 0 c7 -26 23 -26 23 1 0 11 4 18 9 14 6 -3 5 -16 -2 -33
-21 -48 -35 -67 -43 -59 -5 5 -4 11 1 15 16 12 16 39 0 52 -18 15 -20 30 -4
30 6 0 13 -9 16 -20z m78 0 c9 -27 25 -25 25 2 0 15 3 19 10 12 7 -7 5 -20 -5
-41 -18 -35 -45 -62 -45 -44 0 6 4 11 9 11 10 0 2 48 -10 56 -12 7 -11 24 0
24 5 0 13 -9 16 -20z m81 5 c8 -20 24 -19 24 2 0 12 3 14 10 7 7 -7 5 -20 -5
-41 -18 -35 -45 -62 -45 -44 0 6 4 11 9 11 10 0 2 48 -10 56 -12 7 -11 24 1
24 6 0 13 -7 16 -15z m-2936 -5 c0 -5 -2 -10 -4 -10 -3 0 -8 5 -11 10 -3 6 -1
10 4 10 6 0 11 -4 11 -10z m400 -41 c0 -5 -4 -9 -10 -9 -5 0 -10 7 -10 16 0 8
5 12 10 9 6 -3 10 -10 10 -16z m790 6 c0 -8 -4 -15 -10 -15 -5 0 -10 7 -10 15
0 8 5 15 10 15 6 0 10 -7 10 -15z m-1190 -5 c0 -5 -4 -10 -10 -10 -5 0 -10 5
-10 10 0 6 5 10 10 10 6 0 10 -4 10 -10z m480 0 c0 -5 -4 -10 -10 -10 -5 0
-10 5 -10 10 0 6 5 10 10 10 6 0 10 -4 10 -10z m80 0 c0 -5 -4 -10 -10 -10 -5
0 -10 5 -10 10 0 6 5 10 10 10 6 0 10 -4 10 -10z m80 6 c0 -3 -4 -8 -10 -11
-5 -3 -10 -1 -10 4 0 6 5 11 10 11 6 0 10 -2 10 -4z m80 -6 c0 -5 -4 -10 -10
-10 -5 0 -10 5 -10 10 0 6 5 10 10 10 6 0 10 -4 10 -10z m80 0 c0 -5 -4 -10
-10 -10 -5 0 -10 5 -10 10 0 6 5 10 10 10 6 0 10 -4 10 -10z m80 6 c0 -3 -4
-8 -10 -11 -5 -3 -10 -1 -10 4 0 6 5 11 10 11 6 0 10 -2 10 -4z m80 0 c0 -3
-4 -8 -10 -11 -5 -3 -10 -1 -10 4 0 6 5 11 10 11 6 0 10 -2 10 -4z m70 -6 c0
-5 -2 -10 -4 -10 -3 0 -8 5 -11 10 -3 6 -1 10 4 10 6 0 11 -4 11 -10z m80 0
c0 -5 -4 -10 -10 -10 -5 0 -10 5 -10 10 0 6 5 10 10 10 6 0 10 -4 10 -10z
m810 6 c0 -3 -4 -8 -10 -11 -5 -3 -10 -1 -10 4 0 6 5 11 10 11 6 0 10 -2 10
-4z m1590 -6 c0 -5 -2 -10 -4 -10 -3 0 -8 5 -11 10 -3 6 -1 10 4 10 6 0 11 -4
11 -10z m-3186 -56 c23 -9 20 -26 -4 -19 -11 4 -20 2 -20 -4 0 -6 6 -11 14
-11 20 0 28 -14 20 -35 -4 -9 -15 -15 -28 -13 -34 5 -34 85 1 88 1 0 8 -3 17
-6z m1671 -15 c-24 -5 -27 -7 -12 -13 21 -10 23 -26 2 -26 -23 0 -18 -18 8
-23 19 -4 18 -4 -5 -6 -26 -1 -28 2 -28 38 0 41 16 54 50 42 10 -3 4 -8 -15
-12z m71 -19 c8 0 14 7 14 15 0 8 5 15 10 15 6 0 10 -18 10 -40 0 -22 -4 -40
-10 -40 -5 0 -10 7 -10 15 0 21 -30 19 -31 -2 -1 -10 -5 0 -8 22 -4 22 -4 45
-1 50 3 6 6 0 8 -12 2 -13 10 -23 18 -23z m104 30 c12 -8 9 -10 -12 -10 -16 0
-28 -4 -28 -10 0 -5 7 -10 15 -10 21 0 19 -20 -2 -20 -12 -1 -7 -6 12 -15 l30
-13 -32 -1 c-32 -1 -33 1 -33 37 0 52 15 65 50 42z m1126 -36 c-1 -35 -26 -64
-26 -30 0 9 -4 16 -10 16 -5 0 -10 -7 -10 -15 0 -8 -4 -15 -10 -15 -5 0 -10
18 -10 40 0 42 13 53 25 23 6 -16 8 -15 16 5 13 33 26 19 25 -24z m84 1 c0
-41 -16 -54 -35 -29 -13 18 -14 18 -15 2 0 -38 -20 -16 -20 22 0 42 13 53 25
23 6 -16 8 -15 16 5 12 32 29 18 29 -23z m-3297 28 c-26 -5 -31 -23 -8 -23 8
0 15 -4 15 -10 0 -5 -7 -10 -15 -10 -23 0 -18 -18 8 -23 19 -4 18 -4 -5 -6
-16 0 -28 3 -28 8 0 5 -3 23 -6 40 -6 30 -5 31 27 30 24 -1 27 -3 12 -6z m57
-8 c0 -8 5 -15 10 -15 6 0 10 7 10 15 0 8 5 15 10 15 6 0 10 -18 10 -40 0 -22
-4 -40 -10 -40 -5 0 -10 7 -10 15 0 8 -4 15 -10 15 -5 0 -10 -7 -10 -15 0 -8
-4 -15 -10 -15 -5 0 -10 18 -10 40 0 22 5 40 10 40 6 0 10 -7 10 -15z m122 -7
c7 -39 -2 -58 -27 -58 -24 0 -35 17 -35 56 0 20 5 24 29 24 22 0 30 -5 33 -22z
m1988 -18 c0 -36 -3 -40 -24 -40 -27 0 -41 27 -31 60 4 13 15 20 31 20 21 0
24 -4 24 -40z m78 28 c17 -17 15 -43 -4 -59 -31 -26 -70 25 -44 56 15 18 32
19 48 3z m870 5 c-21 -5 -23 -19 -5 -27 10 -5 10 -7 0 -12 -18 -8 -16 -25 2
-18 8 4 15 1 15 -5 0 -6 -11 -11 -25 -11 -22 0 -25 4 -25 40 0 37 2 40 28 39
16 -1 20 -3 10 -6z m220 -15 l11 -23 0 23 c2 40 21 23 21 -18 0 -22 -4 -40
-10 -40 -5 0 -10 7 -10 15 0 8 -4 15 -10 15 -5 0 -10 -7 -10 -16 0 -8 -4 -12
-10 -9 -12 7 -13 75 -2 75 5 0 14 -10 20 -22z m-3018 2 c0 -5 -4 -10 -10 -10
-5 0 -10 5 -10 10 0 6 5 10 10 10 6 0 10 -4 10 -10z m-400 -10 c0 -5 -4 -10
-10 -10 -5 0 -10 5 -10 10 0 6 5 10 10 10 6 0 10 -4 10 -10z m3110 0 c0 -5 -2
-10 -4 -10 -3 0 -8 5 -11 10 -3 6 -1 10 4 10 6 0 11 -4 11 -10z m-3110 -40 c0
-5 -4 -10 -10 -10 -5 0 -10 5 -10 10 0 6 5 10 10 10 6 0 10 -4 10 -10z m400 0
c0 -5 -4 -10 -10 -10 -5 0 -10 5 -10 10 0 6 5 10 10 10 6 0 10 -4 10 -10z
m2710 0 c0 -5 -2 -10 -4 -10 -3 0 -8 5 -11 10 -3 6 -1 10 4 10 6 0 11 -4 11
-10z m-3010 -60 c0 -5 -9 -10 -20 -10 -25 0 -27 -20 -2 -20 15 -1 15 -2 -2
-15 -19 -15 -19 -15 2 -15 12 0 22 -5 22 -11 0 -6 -12 -9 -27 -7 -22 2 -29 9
-31 31 -2 16 -1 35 2 43 6 16 56 19 56 4z m40 -10 c0 -27 16 -25 25 3 l8 22 4
-22 c2 -13 2 -35 0 -50 -4 -27 -4 -27 -12 -5 -9 27 -25 29 -25 2 0 -11 -4 -20
-10 -20 -5 0 -10 20 -10 45 0 25 5 45 10 45 6 0 10 -9 10 -20z m118 2 c15 -30
-1 -67 -28 -67 -20 0 -26 6 -28 28 -2 16 -1 34 1 41 7 18 46 17 55 -2z m66 12
c9 -3 16 -12 16 -20 0 -17 -17 -18 -23 -1 -2 6 -8 8 -13 4 -5 -5 -1 -13 9 -18
19 -11 23 -34 7 -44 -17 -11 -40 15 -40 45 0 38 11 47 44 34z m1691 -4 c4 -6
-6 -10 -22 -10 -25 -1 -26 -2 -10 -14 17 -14 24 -32 8 -21 -5 3 -12 1 -16 -5
-3 -5 3 -10 14 -10 11 0 23 -4 26 -10 4 -6 -7 -10 -24 -10 -30 0 -31 1 -31 45
0 41 2 45 24 45 14 0 28 -4 31 -10z m38 -15 c-3 -9 1 -15 11 -15 9 0 16 7 16
15 0 8 5 15 10 15 6 0 10 -15 10 -34 0 -19 -4 -38 -10 -41 -5 -3 -10 3 -10 14
0 29 -30 27 -31 -1 -1 -13 -5 -5 -8 17 -7 43 -5 58 9 50 5 -3 7 -12 3 -20z
m122 15 c3 -5 -3 -10 -14 -10 -22 0 -30 -20 -8 -20 7 0 4 -7 -7 -15 -19 -15
-19 -15 1 -15 12 0 25 -4 28 -10 4 -6 -7 -10 -24 -10 -30 0 -31 1 -31 45 0 41
2 45 24 45 14 0 28 -4 31 -10z m1035 0 c0 -5 -10 -10 -22 -10 -21 -1 -21 -2
-6 -13 15 -12 15 -14 0 -24 -15 -11 -14 -12 6 -12 30 -1 28 -21 -3 -21 -23 0
-25 4 -25 45 0 41 2 45 25 45 14 0 25 -4 25 -10z m62 -10 c9 23 11 23 17 6 9
-23 2 -76 -10 -76 -5 0 -9 9 -9 20 0 11 -4 20 -10 20 -5 0 -10 -9 -10 -20 0
-11 -4 -20 -10 -20 -11 0 -14 73 -3 84 4 4 11 -3 16 -16 l9 -23 10 25z m69 -8
c0 -12 3 -9 10 7 13 33 31 14 27 -29 -4 -41 -21 -49 -36 -18 l-11 23 0 -22
c-1 -13 -5 -23 -11 -23 -11 0 -14 73 -4 83 10 10 24 -2 25 -21z m79 6 c6 -17
9 -18 9 -6 1 9 6 20 11 23 6 4 10 -12 10 -39 0 -49 -13 -61 -25 -23 l-8 22 -4
-22 c-7 -37 -23 -26 -23 15 0 34 6 52 17 52 2 0 8 -10 13 -22z m-3002 -20 c-2
-27 -8 -34 -29 -36 -29 -3 -41 14 -32 47 4 15 13 21 35 21 27 0 29 -2 26 -32z
m1834 15 c8 -38 -4 -63 -28 -63 -25 0 -42 36 -30 65 8 21 54 19 58 -2z m84 -9
c9 -34 -18 -64 -44 -48 -35 23 -27 74 12 74 19 0 27 -7 32 -26z m-429 -6 c-3
-8 -6 -5 -6 6 -1 11 2 17 5 13 3 -3 4 -12 1 -19z m-1907 -28 c0 -5 -5 -10 -11
-10 -5 0 -7 5 -4 10 3 6 8 10 11 10 2 0 4 -4 4 -10z m3110 -6 c0 -8 -5 -12
-10 -9 -6 4 -8 11 -5 16 9 14 15 11 15 -7z m-3010 -64 c0 -5 -10 -10 -22 -10
-21 0 -21 0 -2 -15 17 -13 17 -14 2 -15 -26 0 -22 -18 5 -23 16 -3 13 -5 -10
-6 -31 -1 -33 1 -33 32 0 19 3 37 7 40 10 11 53 8 53 -3z m40 -10 c0 -11 5
-20 10 -20 6 0 10 9 10 20 0 11 5 20 10 20 6 0 10 -18 10 -40 0 -22 -4 -40
-10 -40 -5 0 -10 7 -10 15 0 8 -4 15 -10 15 -5 0 -10 -7 -10 -15 0 -8 -4 -15
-10 -15 -5 0 -10 18 -10 40 0 22 5 40 10 40 6 0 10 -9 10 -20z m120 -21 c0
-38 -1 -40 -27 -37 -47 5 -45 78 2 78 23 0 25 -4 25 -41z m78 22 c3 -9 -2 -11
-17 -6 -11 3 -21 2 -21 -3 0 -5 9 -12 20 -15 11 -3 20 -13 20 -22 0 -12 -7
-15 -27 -13 -29 3 -41 32 -29 64 7 18 48 15 54 -5z m78 -6 c9 -36 -2 -57 -28
-53 -39 5 -38 78 1 78 14 0 23 -9 27 -25z m1575 11 c-23 -13 -23 -14 -5 -24
17 -10 17 -11 2 -12 -28 0 -21 -18 10 -23 25 -4 25 -4 -5 -6 -32 -1 -33 0 -33
39 0 37 2 40 28 40 l27 -1 -24 -13z m75 -26 c8 0 14 9 14 20 0 11 5 20 10 20
6 0 10 -18 10 -40 0 -22 -4 -40 -10 -40 -5 0 -10 7 -10 15 0 24 -28 17 -33 -7
-2 -13 -4 0 -4 27 0 28 2 40 4 28 2 -13 11 -23 19 -23z m109 30 c-3 -5 -16
-10 -28 -10 -20 0 -20 -1 -3 -13 18 -13 18 -14 0 -22 -17 -7 -17 -8 6 -15 l25
-8 -27 -1 c-26 -1 -28 2 -28 39 0 38 2 40 31 40 17 0 28 -4 24 -10z m77 -2 c2
-7 4 -24 4 -38 -1 -20 -7 -26 -28 -28 -16 -2 -28 0 -29 5 0 4 -2 16 -4 27 -2
10 -1 24 2 32 6 17 49 18 55 2z m80 -10 c7 -40 -2 -58 -28 -58 -28 0 -44 41
-24 65 19 23 47 18 52 -7z m878 12 c0 -5 -10 -11 -22 -11 -17 -1 -19 -2 -5 -6
21 -5 23 -23 2 -23 -8 0 -15 -4 -15 -10 0 -5 9 -10 20 -10 11 0 20 -4 20 -10
0 -5 -11 -10 -25 -10 -23 0 -25 4 -25 45 0 41 2 45 25 45 14 0 25 -4 25 -10z
m40 -5 c0 -8 5 -15 10 -15 6 0 10 7 10 15 0 8 7 15 16 15 11 0 14 -9 12 -37
-3 -35 -28 -61 -28 -29 0 9 -4 16 -10 16 -5 0 -10 -7 -10 -15 0 -8 -4 -15 -10
-15 -5 0 -10 18 -10 40 0 22 5 40 10 40 6 0 10 -7 10 -15z m88 -7 l11 -23 0
23 c1 25 16 29 25 6 8 -22 7 -36 -4 -54 -8 -13 -11 -12 -24 5 -14 18 -15 18
-16 3 0 -38 -20 -16 -20 22 0 45 11 52 28 18z m74 5 c5 -25 -3 -63 -13 -63 -5
0 -9 18 -9 40 0 40 15 56 22 23z m38 -25 c-1 -39 -2 -41 -15 -25 -10 15 -11
25 -3 43 15 33 18 30 18 -18z m-3450 12 c0 -5 -4 -10 -10 -10 -5 0 -10 5 -10
10 0 6 5 10 10 10 6 0 10 -4 10 -10z m0 -40 c0 -5 -4 -10 -10 -10 -5 0 -10 5
-10 10 0 6 5 10 10 10 6 0 10 -4 10 -10z m3110 0 c0 -5 -4 -10 -10 -10 -5 0
-10 5 -10 10 0 6 5 10 10 10 6 0 10 -4 10 -10z m-3027 -67 c-26 -5 -31 -23 -8
-23 8 0 15 -4 15 -10 0 -5 -7 -10 -15 -10 -23 0 -18 -18 8 -23 20 -4 19 -4 -4
-6 -20 -1 -28 5 -33 22 -12 47 -8 57 27 56 23 -1 26 -3 10 -6z m57 -13 c0 -11
5 -20 10 -20 9 0 14 14 11 33 0 4 4 7 9 7 6 0 10 -18 10 -40 0 -22 -4 -40 -10
-40 -5 0 -10 7 -10 15 0 8 -4 15 -10 15 -5 0 -10 -7 -10 -15 0 -8 -4 -15 -10
-15 -5 0 -10 18 -10 40 0 22 5 40 10 40 6 0 10 -9 10 -20z m82 -2 c-3 -14 -2
-19 6 -14 7 4 12 14 12 22 0 8 5 14 10 14 6 0 10 -18 10 -41 0 -38 -1 -40 -27
-37 -24 3 -28 8 -31 41 -2 27 1 37 11 37 11 0 13 -7 9 -22z m113 -18 c0 -29
-4 -36 -22 -38 -17 -3 -24 3 -29 22 -9 37 2 58 28 54 19 -2 23 -9 23 -38z m83
-2 c2 -22 -1 -38 -7 -38 -6 0 -11 5 -11 10 0 14 -27 12 -33 -2 -3 -7 -6 3 -6
23 -1 42 6 51 34 47 15 -2 21 -12 23 -40z m1580 35 c-29 -4 -39 -23 -13 -23 8
0 15 -4 15 -10 0 -5 -7 -10 -15 -10 -23 0 -18 -18 8 -23 19 -4 18 -4 -5 -6
-26 -1 -28 2 -28 39 0 39 1 40 33 39 30 -2 30 -2 5 -6z m56 -7 c-3 -7 2 -16
10 -19 11 -5 16 0 16 13 0 11 5 20 10 20 6 0 10 -17 8 -40 -2 -37 -18 -59 -18
-25 0 21 -28 19 -32 -2 -3 -10 -6 1 -9 25 -3 29 -1 42 8 42 7 0 10 -6 7 -14z
m109 7 c-23 -4 -33 -23 -13 -23 6 0 10 -4 10 -10 0 -5 -7 -10 -15 -10 -23 0
-18 -18 8 -23 19 -4 18 -4 -5 -6 -26 -1 -28 2 -28 39 0 39 1 40 33 39 23 -1
26 -3 10 -6z m95 -35 c3 -36 2 -38 -27 -38 -33 0 -47 24 -36 61 5 15 14 19 33
17 23 -3 27 -8 30 -40z m76 26 c11 -30 -4 -64 -30 -64 -28 0 -43 42 -24 65 16
20 46 19 54 -1z m859 9 c-26 -5 -31 -23 -8 -23 21 0 19 -18 -2 -23 -15 -3 -14
-6 7 -15 l25 -11 -27 0 c-26 -1 -28 2 -28 39 0 37 2 40 28 39 23 -2 24 -2 5
-6z m62 -15 l8 -23 4 23 c7 37 23 25 23 -18 0 -22 -4 -40 -10 -40 -5 0 -10 7
-10 15 0 8 -4 15 -10 15 -5 0 -10 -7 -10 -15 0 -8 -4 -15 -10 -15 -5 0 -10 18
-10 40 0 44 13 53 25 18z m81 5 c13 -17 13 -17 14 0 0 9 6 17 13 17 15 0 20
-49 7 -70 -8 -13 -11 -12 -24 5 -14 18 -15 18 -16 3 0 -38 -20 -16 -20 22 0
44 6 49 26 23z m74 -18 c0 -19 5 -35 10 -35 6 0 10 13 10 29 0 17 5 33 10 36
6 4 10 -10 10 -34 0 -39 -2 -41 -30 -41 -28 0 -30 2 -30 40 0 22 5 40 10 40 6
0 10 -16 10 -35z m-3410 5 c0 -5 -4 -10 -10 -10 -5 0 -10 5 -10 10 0 6 5 10
10 10 6 0 10 -4 10 -10z m3110 0 c0 -5 -5 -10 -11 -10 -5 0 -7 5 -4 10 3 6 8
10 11 10 2 0 4 -4 4 -10z m-3110 -40 c0 -5 -4 -10 -10 -10 -5 0 -10 5 -10 10
0 6 5 10 10 10 6 0 10 -4 10 -10z m260 -101 c0 -37 -2 -39 -30 -39 -28 0 -30
2 -30 38 0 46 3 51 35 44 22 -4 25 -10 25 -43z m1978 42 c12 -6 18 -21 17 -43
0 -28 -4 -33 -27 -36 -26 -3 -28 -1 -28 36 0 51 8 59 38 43z m-2155 -8 c-26
-5 -31 -23 -8 -23 8 0 15 -4 15 -10 0 -5 -7 -10 -15 -10 -23 0 -18 -18 8 -23
19 -4 18 -4 -5 -6 -20 -1 -28 4 -28 17 0 9 -3 27 -6 40 -6 20 -3 22 27 21 24
-1 27 -3 12 -6z m57 -8 c0 -8 5 -15 10 -15 6 0 10 7 10 15 0 8 5 15 10 15 6 0
10 -19 10 -42 -1 -38 -2 -41 -14 -25 -16 21 -26 22 -26 2 0 -8 -4 -15 -10 -15
-5 0 -10 18 -10 40 0 22 5 40 10 40 6 0 10 -7 10 -15z m198 -22 c-3 -33 -6
-38 -28 -38 -19 0 -26 6 -28 23 -5 36 5 52 33 52 24 0 26 -3 23 -37z m77 -3
c0 -30 -4 -35 -26 -38 -30 -4 -41 19 -28 57 6 16 15 21 31 19 19 -2 23 -9 23
-38z m1590 33 c-28 -7 -43 -23 -22 -23 9 0 17 -4 17 -10 0 -5 -4 -10 -10 -10
-20 0 -10 -19 13 -23 16 -3 13 -5 -10 -6 -32 -1 -33 0 -33 39 0 39 1 40 33 39
21 -1 25 -3 12 -6z m45 -8 c0 -8 7 -15 15 -15 8 0 15 7 15 15 0 8 5 15 10 15
6 0 10 -18 10 -40 0 -22 -4 -40 -10 -40 -5 0 -10 7 -10 15 0 21 -28 19 -32 -2
-3 -10 -6 1 -9 25 -2 23 -1 42 3 42 5 0 8 -7 8 -15z m113 8 c-25 -5 -30 -18
-10 -27 10 -5 10 -7 0 -12 -20 -9 -15 -22 10 -27 16 -3 13 -5 -10 -6 -32 -1
-33 0 -33 39 0 39 1 40 33 39 23 -1 26 -3 10 -6z m173 -8 c10 -25 -5 -65 -24
-65 -22 0 -42 19 -42 40 0 35 55 56 66 25z m857 8 c-26 -5 -31 -23 -8 -23 8 0
15 -4 15 -10 0 -5 -7 -10 -15 -10 -23 0 -18 -18 8 -23 19 -4 18 -4 -5 -6 -26
-1 -28 2 -28 39 0 37 2 40 28 39 23 -2 24 -2 5 -6z m63 -10 c13 -17 13 -17 14
0 0 10 6 17 13 15 6 -3 12 -20 12 -38 0 -18 -6 -35 -12 -37 -7 -3 -13 2 -13
11 0 9 -4 16 -10 16 -5 0 -10 -7 -10 -15 0 -8 -4 -15 -10 -15 -5 0 -10 18 -10
40 0 44 6 49 26 23z m80 0 c13 -17 13 -17 14 0 0 9 7 17 15 17 11 0 15 -11 15
-40 0 -45 -20 -54 -38 -17 l-11 22 0 -22 c-2 -41 -21 -24 -21 17 0 44 6 49 26
23z m85 0 c1 -17 2 -17 6 0 8 32 23 17 23 -23 0 -22 -4 -40 -10 -40 -5 0 -10
7 -10 15 0 8 -4 15 -10 15 -5 0 -10 -7 -10 -15 0 -8 -4 -15 -10 -15 -5 0 -10
18 -10 40 0 29 4 40 15 40 8 0 16 -8 16 -17z m-3421 -13 c0 -5 -2 -10 -4 -10
-3 0 -8 5 -11 10 -3 6 -1 10 4 10 6 0 11 -4 11 -10z m0 -40 c0 -5 -2 -10 -4
-10 -3 0 -8 5 -11 10 -3 6 -1 10 4 10 6 0 11 -4 11 -10z m3110 0 c0 -5 -2 -10
-4 -10 -3 0 -8 5 -11 10 -3 6 -1 10 4 10 6 0 11 -4 11 -10z m400 0 c0 -5 -2
-10 -4 -10 -3 0 -8 5 -11 10 -3 6 -1 10 4 10 6 0 11 -4 11 -10z m-3410 -60 c0
-5 -9 -10 -20 -10 -25 0 -27 -20 -2 -21 16 -1 16 -2 0 -6 -24 -6 -23 -23 2
-23 11 0 20 -5 20 -11 0 -6 -12 -9 -27 -7 -22 2 -29 9 -31 31 -2 16 -1 35 2
43 6 16 56 19 56 4z m40 -10 c0 -27 16 -25 25 3 l8 22 4 -22 c2 -13 2 -35 0
-50 -4 -27 -4 -27 -12 -5 -9 27 -25 29 -25 2 0 -11 -4 -20 -10 -20 -5 0 -10
20 -10 45 0 25 5 45 10 45 6 0 10 -9 10 -20z m84 -2 l7 -23 9 23 c14 34 20 27
20 -23 0 -25 -4 -45 -10 -45 -5 0 -10 5 -10 11 0 6 -8 18 -17 27 -16 16 -16
16 -11 -5 3 -13 2 -26 -3 -29 -5 -3 -9 15 -9 40 0 49 13 61 24 24z m114 -12
c3 -23 0 -27 -12 -23 -9 4 -16 2 -16 -3 0 -6 8 -10 17 -10 13 0 14 -3 6 -11
-29 -29 -69 35 -43 67 20 23 45 13 48 -20z m237 -6 c0 -30 -3 -35 -24 -35 -25
0 -27 8 -22 66 1 6 11 9 24 7 18 -2 22 -9 22 -38z m81 5 c1 -38 -13 -58 -34
-46 -15 9 -26 57 -16 73 3 5 16 8 27 6 17 -2 22 -10 23 -33z m77 20 c4 -8 1
-17 -5 -21 -7 -4 -6 -9 3 -15 18 -11 -2 -32 -26 -27 -17 3 -30 52 -19 70 9 13
41 9 47 -7z m75 -26 c0 -34 -3 -40 -21 -37 -14 2 -21 12 -23 32 -4 36 2 46 26
46 15 0 19 -7 18 -41z m79 -2 c2 -31 -1 -37 -17 -37 -11 0 -20 5 -20 11 0 5 5
7 10 4 17 -10 11 7 -7 20 -21 15 -10 48 14 43 13 -2 19 -14 20 -41z m81 3 c0
-34 -4 -40 -22 -40 -17 0 -18 2 -6 10 13 8 12 11 -4 23 -23 17 -15 47 13 47
16 0 20 -7 19 -40z m78 -3 c3 -32 0 -37 -19 -37 -18 0 -19 2 -7 10 13 8 12 11
-4 23 -23 17 -15 50 11 45 12 -2 18 -14 19 -41z m82 25 c2 -7 -2 -10 -12 -6
-12 5 -15 2 -10 -10 3 -9 2 -16 -4 -16 -16 0 -24 33 -10 42 16 10 30 6 36 -10z
m82 3 c0 -9 -6 -12 -17 -8 -14 5 -14 2 3 -13 24 -22 21 -44 -6 -44 -21 0 -34
31 -25 60 7 23 45 27 45 5z m80 5 c0 -5 -5 -10 -10 -10 -7 0 -7 -7 1 -21 9
-17 8 -25 -5 -37 -8 -9 -19 -12 -23 -8 -4 4 -2 11 6 15 11 7 10 12 -1 30 -11
18 -11 23 2 31 19 13 30 12 30 0z m59 -11 c-9 -6 -10 -9 -2 -9 14 0 12 -49 -2
-50 -10 0 -17 59 -8 73 2 4 9 4 15 1 6 -4 5 -10 -3 -15z m671 11 c0 -5 -9 -10
-20 -10 -25 0 -26 -17 -2 -23 14 -3 13 -6 -8 -15 -24 -10 -24 -11 -3 -11 35
-1 38 -21 4 -21 -30 0 -31 1 -31 45 0 43 1 45 30 45 17 0 30 -4 30 -10z m30
-10 c0 -11 7 -20 15 -20 8 0 15 9 15 20 0 11 5 20 10 20 6 0 10 -18 10 -40 0
-22 -4 -40 -10 -40 -5 0 -10 7 -10 15 0 25 -30 17 -31 -7 -1 -22 -1 -22 -9 2
-12 36 -12 70 0 70 6 0 10 -9 10 -20z m125 11 c-6 -5 -19 -11 -30 -14 -19 -5
-19 -5 2 -12 13 -4 20 -11 17 -16 -3 -5 -9 -7 -14 -4 -5 3 -11 1 -15 -5 -3 -5
3 -10 14 -10 12 0 21 -4 21 -10 0 -5 -11 -10 -25 -10 -23 0 -25 4 -25 45 0 44
1 45 32 45 19 0 28 -4 23 -9z m73 -38 c3 -38 1 -43 -18 -43 -24 0 -39 31 -32
67 3 18 10 23 26 21 17 -2 22 -11 24 -45z m962 37 c0 -5 -10 -11 -22 -11 -17
-1 -19 -2 -5 -6 9 -2 17 -11 17 -18 0 -7 -8 -16 -17 -18 -14 -4 -12 -5 5 -6
30 -1 28 -21 -3 -21 -23 0 -25 4 -25 45 0 41 2 45 25 45 14 0 25 -4 25 -10z
m57 -12 c7 39 23 24 23 -23 0 -47 -15 -62 -23 -22 l-4 22 -8 -22 c-11 -36 -25
-27 -25 15 0 47 11 61 24 30 l9 -23 4 23z m63 7 c0 -8 5 -15 10 -15 6 0 10 7
10 16 0 9 6 14 13 11 12 -4 18 -50 9 -74 -6 -18 -22 -16 -22 2 0 8 -4 15 -10
15 -5 0 -10 -7 -10 -16 0 -8 -4 -12 -10 -9 -5 3 -10 24 -10 46 0 21 5 39 10
39 6 0 10 -7 10 -15z m100 -13 c0 9 5 20 10 23 6 4 10 -12 10 -42 l0 -48 -20
25 -20 25 0 -23 c0 -13 -4 -20 -10 -17 -11 7 -14 68 -3 79 4 3 13 -4 20 -16 9
-18 12 -19 13 -6z m-1094 3 c10 -26 -5 -65 -25 -65 -27 0 -44 26 -37 55 5 18
13 25 32 25 13 0 27 -7 30 -15z m-2336 -11 c0 -8 -4 -12 -10 -9 -5 3 -10 10
-10 16 0 5 5 9 10 9 6 0 10 -7 10 -16z m400 6 c0 -5 -4 -10 -10 -10 -5 0 -10
5 -10 10 0 6 5 10 10 10 6 0 10 -4 10 -10z m80 0 c0 -5 -4 -10 -10 -10 -5 0
-10 5 -10 10 0 6 5 10 10 10 6 0 10 -4 10 -10z m960 0 c0 -5 -4 -10 -10 -10
-5 0 -10 5 -10 10 0 6 5 10 10 10 6 0 10 -4 10 -10z m80 0 c0 -5 -4 -10 -10
-10 -5 0 -10 5 -10 10 0 6 5 10 10 10 6 0 10 -4 10 -10z m395 1 c3 -5 1 -12
-5 -16 -5 -3 -10 1 -10 9 0 18 6 21 15 7z m1195 -7 c0 -8 -5 -12 -10 -9 -6 4
-8 11 -5 16 9 14 15 11 15 -7z m400 0 c0 -8 -5 -12 -10 -9 -6 4 -8 11 -5 16 9
14 15 11 15 -7z m-2380 -28 c0 -15 -24 -28 -34 -19 -10 10 -7 25 4 18 6 -3 10
-1 10 4 0 6 5 11 10 11 6 0 10 -6 10 -14z m-1134 -23 c-10 -10 -19 5 -10 18 6
11 8 11 12 0 2 -7 1 -15 -2 -18z m404 12 c0 -8 -4 -15 -10 -15 -5 0 -10 7 -10
15 0 8 5 15 10 15 6 0 10 -7 10 -15z m80 5 c0 -5 -4 -10 -10 -10 -5 0 -10 5
-10 10 0 6 5 10 10 10 6 0 10 -4 10 -10z m960 0 c0 -5 -4 -10 -10 -10 -5 0
-10 5 -10 10 0 6 5 10 10 10 6 0 10 -4 10 -10z m80 0 c0 -5 -4 -10 -10 -10 -5
0 -10 5 -10 10 0 6 5 10 10 10 6 0 10 -4 10 -10z m75 1 c3 -5 1 -12 -5 -16 -5
-3 -10 1 -10 9 0 18 6 21 15 7z m325 -12 c0 -5 -7 -9 -15 -9 -15 0 -20 12 -9
23 8 8 24 -1 24 -14z m1190 5 c0 -8 -5 -12 -10 -9 -6 4 -8 11 -5 16 9 14 15
11 15 -7z m-3010 -64 c0 -5 -10 -11 -22 -11 -17 -1 -19 -2 -5 -6 21 -5 23 -23
2 -23 -8 0 -15 -4 -15 -10 0 -5 9 -10 20 -10 11 0 20 -5 20 -11 0 -6 -12 -9
-27 -7 -25 3 -28 7 -31 46 -3 41 -2 42 27 42 17 0 31 -4 31 -10z m40 -5 c0 -8
5 -15 10 -15 6 0 10 7 10 15 0 8 5 15 10 15 6 0 10 -21 10 -47 l0 -48 -20 25
-20 25 0 -22 c0 -13 -4 -23 -10 -23 -5 0 -10 20 -10 45 0 25 5 45 10 45 6 0
10 -7 10 -15z m80 0 c0 -8 5 -15 10 -15 6 0 10 7 10 15 0 8 5 15 10 15 6 0 10
-20 10 -45 0 -45 -12 -60 -24 -28 -6 14 -8 14 -21 -3 -13 -17 -14 -15 -15 29
0 26 5 47 10 47 6 0 10 -7 10 -15z m115 -30 c0 -36 -2 -40 -25 -40 -22 0 -25
5 -28 43 -3 42 -2 43 25 40 25 -3 28 -7 28 -43z m81 21 c9 -38 -4 -68 -29 -64
-23 3 -35 43 -23 74 9 24 45 17 52 -10z m69 -22 c0 -30 -4 -39 -17 -39 -10 0
-18 5 -17 10 1 6 5 9 10 8 15 -5 10 15 -6 21 -18 7 -20 32 -2 39 24 10 32 0
32 -39z m87 34 c5 -14 -14 -78 -23 -78 -7 0 -19 51 -19 76 0 17 37 19 42 2z
m83 2 c3 -5 3 -16 -2 -22 -4 -7 -7 -22 -8 -33 0 -28 -30 -26 -30 2 0 12 -4 25
-7 28 -4 4 -4 13 -1 21 6 16 39 19 48 4z m80 0 c4 -6 1 -17 -5 -25 -9 -11 -9
-15 -1 -15 17 0 13 -27 -5 -34 -25 -10 -42 11 -39 47 2 17 3 33 4 35 3 7 41 0
46 -8z m65 1 c0 -5 -7 -12 -16 -15 -24 -9 -28 -7 -14 9 14 17 30 20 30 6z m85
-2 c4 -6 4 -13 0 -17 -3 -3 -10 0 -15 8 -8 13 -10 13 -10 -1 0 -9 7 -19 15
-23 17 -6 20 -32 6 -40 -12 -8 -41 3 -41 15 0 4 8 6 18 2 15 -6 15 -4 -2 15
-10 12 -16 28 -13 37 7 17 33 20 42 4z m76 2 c-10 -7 -11 -13 -1 -31 14 -26 7
-50 -15 -50 -18 0 -20 17 -2 23 9 3 9 7 -2 20 -17 21 -8 47 16 47 14 0 15 -2
4 -9z m85 -33 c1 -21 -2 -35 -7 -33 -4 3 -10 1 -14 -5 -4 -6 -11 -7 -17 -4 -7
4 -6 9 2 14 9 6 9 13 1 28 -17 31 -13 44 12 40 18 -2 22 -10 23 -40z m84 25
c0 -16 -2 -16 -11 -3 -9 12 -10 11 -6 -5 3 -11 8 -27 11 -36 8 -20 -22 -35
-38 -19 -7 7 -5 10 7 10 14 0 15 4 7 26 -14 36 -13 44 10 44 12 0 20 -7 20
-17z m75 -25 c0 -27 -5 -38 -17 -42 -10 -2 -21 0 -24 5 -3 5 1 9 8 9 8 0 13
13 14 33 1 17 -1 24 -3 14 -5 -20 -23 -13 -23 9 0 10 8 14 23 12 18 -2 22 -9
22 -40z m75 17 c0 -14 -4 -25 -9 -25 -12 0 -23 29 -15 41 10 18 24 9 24 -16z
m80 -14 c0 -52 -16 -62 -23 -13 -5 40 -1 52 14 52 5 0 9 -18 9 -39z m90 29 c0
-5 -6 -10 -12 -11 -10 0 -10 -2 0 -6 6 -2 12 -16 12 -29 0 -18 -5 -24 -22 -23
-21 0 -21 1 -4 8 17 7 17 8 2 23 -22 23 -20 48 4 48 11 0 20 -4 20 -10z m80
-30 c0 -36 -3 -40 -24 -40 -21 0 -25 5 -24 33 1 41 5 47 29 47 16 0 19 -7 19
-40z m480 30 c0 -5 -10 -11 -22 -11 -17 -1 -19 -2 -5 -6 9 -2 17 -7 17 -10 0
-3 -8 -12 -17 -19 -16 -12 -15 -13 10 -14 16 0 26 -4 22 -10 -3 -5 -17 -10
-31 -10 -22 0 -24 4 -24 45 0 41 2 45 25 45 14 0 25 -4 25 -10z m60 -30 c5 0
10 9 10 20 0 11 5 20 10 20 6 0 10 -18 10 -39 0 -22 -4 -43 -10 -46 -5 -3 -10
3 -10 14 0 28 -28 27 -33 -1 -2 -13 -5 0 -5 27 -1 39 1 45 8 28 5 -13 14 -23
20 -23z m105 30 c-3 -5 -14 -10 -23 -10 -13 0 -13 -2 4 -15 17 -13 17 -14 2
-15 -25 0 -22 -20 3 -20 11 0 17 -4 14 -10 -3 -5 -17 -10 -31 -10 -22 0 -24 4
-24 45 0 44 1 45 31 45 17 0 28 -4 24 -10z m83 -9 c4 -11 -2 -12 -22 -7 -24 6
-27 4 -24 -15 2 -12 9 -24 16 -25 7 -1 8 0 2 3 -17 8 -11 23 10 23 24 0 28
-35 4 -44 -29 -11 -42 -6 -48 20 -11 41 2 66 32 62 14 -2 28 -9 30 -17z m72 4
c20 -24 4 -65 -25 -65 -18 0 -26 7 -31 25 -7 27 9 55 31 55 7 0 18 -7 25 -15z
m880 5 c0 -5 -10 -11 -22 -11 -17 -1 -19 -2 -5 -6 9 -2 17 -7 17 -10 0 -3 -8
-12 -17 -19 -17 -12 -16 -13 5 -14 12 0 22 -4 22 -10 0 -5 -11 -10 -25 -10
-23 0 -25 4 -25 45 0 41 2 45 25 45 14 0 25 -4 25 -10z m46 -7 c13 -17 13 -17
14 0 0 9 5 17 10 17 6 0 10 -20 10 -45 0 -48 -13 -60 -25 -22 l-8 22 -4 -22
c-8 -40 -23 -25 -23 22 0 49 6 55 26 28z m80 0 c13 -17 13 -17 14 0 0 10 6 17
13 15 14 -5 22 -52 12 -76 -5 -15 -9 -13 -25 8 l-20 25 0 -22 c0 -13 -4 -23
-10 -23 -5 0 -10 20 -10 45 0 49 6 55 26 28z m95 -5 c13 33 19 27 19 -18 0
-22 -4 -40 -10 -40 -5 0 -10 7 -10 16 0 8 -5 12 -11 9 -6 -4 -8 -14 -5 -22 4
-9 1 -13 -6 -11 -15 5 -23 52 -13 76 6 14 9 13 17 -8 l10 -25 9 23z m-3431 -8
c0 -5 -4 -10 -10 -10 -5 0 -10 5 -10 10 0 6 5 10 10 10 6 0 10 -4 10 -10z
m3110 0 c0 -5 -5 -10 -11 -10 -5 0 -7 5 -4 10 3 6 8 10 11 10 2 0 4 -4 4 -10z
m-2302 -11 c-2 -6 -8 -10 -13 -10 -5 0 -11 4 -13 10 -2 6 4 11 13 11 9 0 15
-5 13 -11z m-4 -22 c3 3 6 1 6 -5 0 -18 -20 -25 -35 -12 -21 18 -19 33 4 21
10 -6 21 -7 25 -4z m-804 -12 c0 -8 -4 -15 -10 -15 -5 0 -10 7 -10 15 0 8 5
15 10 15 6 0 10 -7 10 -15z m1280 6 c0 -6 -4 -13 -10 -16 -5 -3 -10 1 -10 9 0
9 5 16 10 16 6 0 10 -4 10 -9z m627 -13 c-3 -8 -6 -5 -6 6 -1 11 2 17 5 13 3
-3 4 -12 1 -19z m1203 6 c0 -8 -5 -12 -10 -9 -6 4 -8 11 -5 16 9 14 15 11 15
-7z m397 -6 c-3 -8 -6 -5 -6 6 -1 11 2 17 5 13 3 -3 4 -12 1 -19z m-1907 8 c0
-3 -4 -8 -10 -11 -5 -3 -10 -1 -10 4 0 6 5 11 10 11 6 0 10 -2 10 -4z m-1505
-66 c-3 -5 -13 -10 -21 -10 -20 0 -17 -20 4 -21 16 -1 16 -2 0 -6 -24 -6 -23
-23 2 -23 11 0 20 -5 20 -11 0 -6 -12 -9 -27 -7 -22 2 -29 9 -31 31 -5 42 4
57 33 57 15 0 24 -4 20 -10z m45 -10 c0 -11 5 -20 10 -20 6 0 10 9 10 20 0 11
5 20 10 20 6 0 10 -21 10 -46 0 -27 -4 -43 -10 -39 -5 3 -10 13 -10 21 0 8 -4
14 -10 14 -5 0 -10 -9 -10 -20 0 -11 -4 -20 -10 -20 -5 0 -10 20 -10 45 0 25
5 45 10 45 6 0 10 -9 10 -20z m80 5 c0 -8 5 -15 10 -15 6 0 10 7 10 15 0 8 5
15 10 15 6 0 10 -21 9 -47 0 -47 -1 -47 -16 -25 -17 24 -35 30 -27 8 3 -8 1
-17 -5 -21 -7 -4 -11 10 -11 39 0 25 5 46 10 46 6 0 10 -7 10 -15z m118 -21
c3 -34 -17 -58 -42 -48 -10 4 -16 18 -16 38 0 39 7 48 35 44 14 -2 21 -12 23
-34z m72 21 c6 -8 8 -20 4 -27 -5 -7 -9 -20 -9 -28 0 -19 -37 -20 -43 -1 -3 8
0 11 7 7 6 -4 11 -2 11 3 0 6 -4 11 -10 11 -14 0 -12 37 3 43 20 9 24 8 37 -8z
m1605 5 c-3 -5 -15 -10 -26 -10 -11 0 -17 -5 -14 -10 4 -6 11 -8 16 -5 5 4 9
1 9 -4 0 -6 -7 -11 -15 -11 -8 0 -15 -4 -15 -10 0 -5 9 -10 19 -10 11 0 23 -4
26 -10 4 -6 -7 -10 -24 -10 -30 0 -31 1 -31 45 0 44 1 45 31 45 17 0 28 -4 24
-10z m51 -24 c9 -4 14 1 14 14 0 11 5 20 10 20 6 0 10 -18 10 -39 0 -22 -4
-43 -10 -46 -5 -3 -10 3 -10 14 0 28 -28 27 -33 -1 -2 -13 -4 0 -4 27 -1 28 1
43 4 33 2 -9 11 -19 19 -22z m104 24 c0 -5 -8 -10 -17 -11 -11 0 -13 -3 -5 -6
17 -7 15 -23 -3 -23 -8 0 -15 -4 -15 -10 0 -5 11 -10 25 -10 14 0 25 -4 25
-10 0 -5 -13 -10 -30 -10 -29 0 -30 2 -30 45 0 41 2 45 25 45 14 0 25 -4 25
-10z m77 -7 c3 -7 -3 -9 -16 -6 -17 4 -21 1 -21 -21 0 -16 6 -26 15 -26 9 0
12 6 9 15 -4 9 0 15 9 15 10 0 13 -8 9 -26 -3 -19 -10 -24 -26 -22 -17 2 -22
11 -24 46 -3 40 -1 43 19 40 12 -2 24 -8 26 -15z m61 10 c-14 -3 -15 -7 -5
-18 9 -9 14 -10 19 -1 4 6 8 -1 8 -16 0 -15 -4 -30 -10 -33 -5 -3 -7 0 -4 8 3
8 -2 14 -11 14 -8 0 -15 -4 -15 -9 0 -5 -4 -6 -10 -3 -25 16 -2 66 30 64 12
-1 11 -2 -2 -6z m902 -3 c0 -5 -10 -10 -22 -10 -21 -1 -21 -2 -5 -11 21 -12
23 -33 2 -25 -8 3 -15 1 -15 -4 0 -6 9 -10 20 -10 11 0 20 -5 20 -11 0 -6 -10
-9 -22 -7 -19 2 -24 10 -26 46 -3 39 -1 42 22 42 14 0 26 -4 26 -10z m46 -7
c13 -17 13 -17 14 0 0 9 5 17 10 17 6 0 10 -21 10 -46 0 -27 -4 -43 -10 -39
-5 3 -10 13 -10 21 0 8 -4 14 -10 14 -5 0 -10 -9 -10 -20 0 -11 -4 -20 -10
-20 -5 0 -10 20 -10 45 0 49 6 55 26 28z m83 0 c10 -17 10 -17 11 0 0 21 16
22 24 1 8 -21 8 -59 -1 -68 -4 -4 -15 3 -25 16 -14 19 -18 20 -18 6 0 -9 -4
-20 -10 -23 -6 -4 -10 12 -10 39 0 48 12 59 29 29z m71 -18 c0 -19 5 -35 10
-35 6 0 10 13 10 29 0 17 5 33 10 36 6 4 10 -10 10 -35 0 -44 -19 -61 -45 -40
-17 14 -21 80 -5 80 6 0 10 -16 10 -35z m-2610 4 c0 -5 -4 -9 -10 -9 -5 0 -10
7 -10 16 0 8 5 12 10 9 6 -3 10 -10 10 -16z m80 6 c0 -8 -4 -15 -10 -15 -5 0
-10 7 -10 15 0 8 5 15 10 15 6 0 10 -7 10 -15z m80 -6 c0 -5 -4 -9 -10 -9 -5
0 -10 7 -10 16 0 8 5 12 10 9 6 -3 10 -10 10 -16z m80 0 c0 -5 -4 -9 -10 -9
-5 0 -10 7 -10 16 0 8 5 12 10 9 6 -3 10 -10 10 -16z m400 0 c0 -5 -4 -9 -10
-9 -5 0 -10 7 -10 16 0 8 5 12 10 9 6 -3 10 -10 10 -16z m-1440 1 c0 -5 -4
-10 -10 -10 -5 0 -10 5 -10 10 0 6 5 10 10 10 6 0 10 -4 10 -10z m480 0 c0 -5
-4 -10 -10 -10 -5 0 -10 5 -10 10 0 6 5 10 10 10 6 0 10 -4 10 -10z m80 0 c0
-5 -4 -10 -10 -10 -5 0 -10 5 -10 10 0 6 5 10 10 10 6 0 10 -4 10 -10z m80 0
c0 -5 -4 -10 -10 -10 -5 0 -10 5 -10 10 0 6 5 10 10 10 6 0 10 -4 10 -10z m80
0 c0 -5 -4 -10 -10 -10 -5 0 -10 5 -10 10 0 6 5 10 10 10 6 0 10 -4 10 -10z
m400 0 c0 -5 -4 -10 -10 -10 -5 0 -10 5 -10 10 0 6 5 10 10 10 6 0 10 -4 10
-10z m80 6 c0 -3 -4 -8 -10 -11 -5 -3 -10 -1 -10 4 0 6 5 11 10 11 6 0 10 -2
10 -4z m80 -6 c0 -5 -4 -10 -10 -10 -5 0 -10 5 -10 10 0 6 5 10 10 10 6 0 10
-4 10 -10z m80 0 c0 -5 -4 -10 -10 -10 -5 0 -10 5 -10 10 0 6 5 10 10 10 6 0
10 -4 10 -10z m160 0 c0 -5 -4 -10 -10 -10 -5 0 -10 5 -10 10 0 6 5 10 10 10
6 0 10 -4 10 -10z m80 6 c0 -3 -4 -8 -10 -11 -5 -3 -10 -1 -10 4 0 6 5 11 10
11 6 0 10 -2 10 -4z m-1600 -46 c0 -5 -4 -10 -10 -10 -5 0 -10 5 -10 10 0 6 5
10 10 10 6 0 10 -4 10 -10z m480 1 c0 -6 -4 -13 -10 -16 -5 -3 -10 1 -10 9 0
9 5 16 10 16 6 0 10 -4 10 -9z m80 1 c0 -13 -12 -22 -22 -16 -10 6 -1 24 13
24 5 0 9 -4 9 -8z m80 -1 c0 -6 -4 -13 -10 -16 -5 -3 -10 1 -10 9 0 9 5 16 10
16 6 0 10 -4 10 -9z m80 -1 c0 -5 -4 -10 -10 -10 -5 0 -10 5 -10 10 0 6 5 10
10 10 6 0 10 -4 10 -10z m80 0 c0 -5 -4 -10 -10 -10 -5 0 -10 5 -10 10 0 6 5
10 10 10 6 0 10 -4 10 -10z m80 0 c0 -5 -4 -10 -10 -10 -5 0 -10 5 -10 10 0 6
5 10 10 10 6 0 10 -4 10 -10z m80 0 c0 -5 -4 -10 -10 -10 -5 0 -10 5 -10 10 0
6 5 10 10 10 6 0 10 -4 10 -10z m80 0 c0 -5 -4 -10 -10 -10 -5 0 -10 5 -10 10
0 6 5 10 10 10 6 0 10 -4 10 -10z m80 0 c0 -5 -4 -10 -10 -10 -5 0 -10 5 -10
10 0 6 5 10 10 10 6 0 10 -4 10 -10z m80 0 c0 -5 -4 -10 -10 -10 -5 0 -10 5
-10 10 0 6 5 10 10 10 6 0 10 -4 10 -10z m80 0 c0 -5 -4 -10 -10 -10 -5 0 -10
5 -10 10 0 6 5 10 10 10 6 0 10 -4 10 -10z m80 1 c0 -6 -4 -13 -10 -16 -5 -3
-10 1 -10 9 0 9 5 16 10 16 6 0 10 -4 10 -9z m80 0 c0 -6 -4 -13 -10 -16 -5
-3 -10 1 -10 9 0 9 5 16 10 16 6 0 10 -4 10 -9z m80 -1 c0 -5 -4 -10 -10 -10
-5 0 -10 5 -10 10 0 6 5 10 10 10 6 0 10 -4 10 -10z m400 -5 c0 -8 -4 -15 -10
-15 -5 0 -10 7 -10 15 0 8 5 15 10 15 6 0 10 -7 10 -15z m1190 -1 c0 -8 -5
-12 -10 -9 -6 4 -8 11 -5 16 9 14 15 11 15 -7z m397 -6 c-3 -8 -6 -5 -6 6 -1
11 2 17 5 13 3 -3 4 -12 1 -19z"/>
<path d="M5510 4931 c0 -6 5 -11 10 -11 14 0 12 -27 -2 -33 -8 -3 -5 -6 5 -6
14 -1 18 5 15 26 -3 25 -28 47 -28 24z"/>
<path d="M5590 4930 c0 -5 5 -10 11 -10 5 0 7 5 4 10 -3 6 -8 10 -11 10 -2 0
-4 -4 -4 -10z"/>
<path d="M5590 4890 c0 -5 5 -10 10 -10 6 0 10 5 10 10 0 6 -4 10 -10 10 -5 0
-10 -4 -10 -10z"/>
<path d="M5675 4930 c-3 -5 1 -10 10 -10 9 0 13 5 10 10 -3 6 -8 10 -10 10 -2
0 -7 -4 -10 -10z"/>
<path d="M5750 4890 c0 -5 5 -10 10 -10 6 0 10 5 10 10 0 6 -4 10 -10 10 -5 0
-10 -4 -10 -10z"/>
<path d="M5830 4930 c0 -5 5 -10 11 -10 5 0 7 5 4 10 -3 6 -8 10 -11 10 -2 0
-4 -4 -4 -10z"/>
<path d="M5830 4890 c0 -5 5 -10 10 -10 6 0 10 5 10 10 0 6 -4 10 -10 10 -5 0
-10 -4 -10 -10z"/>
<path d="M5910 4889 c0 -5 5 -7 10 -4 6 3 10 8 10 11 0 2 -4 4 -10 4 -5 0 -10
-5 -10 -11z"/>
<path d="M5990 4930 c0 -5 5 -10 11 -10 5 0 7 5 4 10 -3 6 -8 10 -11 10 -2 0
-4 -4 -4 -10z"/>
<path d="M5990 4896 c0 -9 5 -16 10 -16 6 0 10 4 10 9 0 6 -4 13 -10 16 -5 3
-10 -1 -10 -9z"/>
<path d="M6625 4890 c3 -5 10 -10 16 -10 5 0 9 5 9 10 0 6 -7 10 -16 10 -8 0
-12 -4 -9 -10z"/>
<path d="M7265 4930 c-3 -5 1 -10 10 -10 9 0 13 5 10 10 -3 6 -8 10 -10 10 -2
0 -7 -4 -10 -10z"/>
<path d="M7270 4890 c0 -5 5 -10 10 -10 6 0 10 5 10 10 0 6 -4 10 -10 10 -5 0
-10 -4 -10 -10z"/>
<path d="M5350 4794 c0 -8 5 -12 10 -9 6 3 10 10 10 16 0 5 -4 9 -10 9 -5 0
-10 -7 -10 -16z"/>
<path d="M6385 4790 c-7 -23 1 -40 18 -39 9 0 9 2 0 6 -16 6 -17 30 -1 35 9 3
9 6 1 11 -7 4 -14 -1 -18 -13z"/>
<path d="M7265 4800 c-3 -5 -1 -10 4 -10 6 0 11 5 11 10 0 6 -2 10 -4 10 -3 0
-8 -4 -11 -10z"/>
<path d="M7340 4794 c0 -17 22 -14 28 4 2 7 -3 12 -12 12 -9 0 -16 -7 -16 -16z"/>
<path d="M5350 4670 c0 -5 5 -10 10 -10 6 0 10 5 10 10 0 6 -4 10 -10 10 -5 0
-10 -4 -10 -10z"/>
<path d="M5430 4629 c0 -5 5 -7 10 -4 6 3 10 8 10 11 0 2 -4 4 -10 4 -5 0 -10
-5 -10 -11z"/>
<path d="M7265 4670 c-3 -5 -2 -10 4 -10 5 0 13 5 16 10 3 6 2 10 -4 10 -5 0
-13 -4 -16 -10z"/>
<path d="M7260 4630 c0 -5 5 -10 10 -10 6 0 10 5 10 10 0 6 -4 10 -10 10 -5 0
-10 -4 -10 -10z"/>
<path d="M7340 4670 c0 -5 5 -10 10 -10 6 0 10 5 10 10 0 6 -4 10 -10 10 -5 0
-10 -4 -10 -10z"/>
<path d="M7435 4670 c3 -5 8 -10 11 -10 2 0 4 5 4 10 0 6 -5 10 -11 10 -5 0
-7 -4 -4 -10z"/>
<path d="M7428 4633 c7 -3 16 -2 19 1 4 3 -2 6 -13 5 -11 0 -14 -3 -6 -6z"/>
<path d="M5430 4546 c0 -9 5 -16 10 -16 6 0 10 4 10 9 0 6 -4 13 -10 16 -5 3
-10 -1 -10 -9z"/>
<path d="M5430 4510 c0 -5 5 -10 11 -10 5 0 7 5 4 10 -3 6 -8 10 -11 10 -2 0
-4 -4 -4 -10z"/>
<path d="M7340 4540 c0 -5 5 -10 10 -10 6 0 10 5 10 10 0 6 -4 10 -10 10 -5 0
-10 -4 -10 -10z"/>
<path d="M7428 4503 c7 -3 16 -2 19 1 4 3 -2 6 -13 5 -11 0 -14 -3 -6 -6z"/>
<path d="M5517 4534 c3 -9 0 -20 -8 -25 -11 -7 -9 -9 7 -9 17 0 20 5 16 25 -2
14 -8 25 -13 25 -5 0 -6 -7 -2 -16z"/>
<path d="M5350 4416 c0 -9 5 -16 10 -16 6 0 10 4 10 9 0 6 -4 13 -10 16 -5 3
-10 -1 -10 -9z"/>
<path d="M5430 4410 c0 -5 5 -10 10 -10 6 0 10 5 10 10 0 6 -4 10 -10 10 -5 0
-10 -4 -10 -10z"/>
<path d="M5430 4380 c0 -5 5 -10 10 -10 6 0 10 5 10 10 0 6 -4 10 -10 10 -5 0
-10 -4 -10 -10z"/>
<path d="M7340 4394 c0 -14 4 -23 10 -19 6 4 8 11 5 16 -4 5 -1 9 4 9 6 0 11
5 11 10 0 6 -7 10 -15 10 -9 0 -15 -10 -15 -26z"/>
<path d="M5517 4404 c3 -9 0 -20 -8 -25 -11 -7 -11 -9 4 -9 12 0 17 8 17 25 0
14 -4 25 -10 25 -5 0 -7 -7 -3 -16z"/>
<path d="M7431 4403 c-10 -11 -10 -17 -2 -24 6 -5 9 -6 6 -3 -3 4 0 13 7 21
15 19 6 24 -11 6z"/>
<path d="M5350 4290 c0 -5 5 -10 10 -10 6 0 10 5 10 10 0 6 -4 10 -10 10 -5 0
-10 -4 -10 -10z"/>
<path d="M5430 4279 c0 -5 5 -7 10 -4 6 3 10 8 10 11 0 2 -4 4 -10 4 -5 0 -10
-5 -10 -11z"/>
<path d="M5430 4250 c0 -5 5 -10 10 -10 6 0 10 5 10 10 0 6 -4 10 -10 10 -5 0
-10 -4 -10 -10z"/>
<path d="M7433 4293 c-18 -7 -16 -23 2 -23 8 0 15 7 15 15 0 8 -1 15 -2 14 -2
0 -9 -3 -15 -6z"/>
<path d="M5350 4160 c0 -5 5 -10 10 -10 6 0 10 5 10 10 0 6 -4 10 -10 10 -5 0
-10 -4 -10 -10z"/>
<path d="M5430 4160 c0 -5 5 -10 10 -10 6 0 10 5 10 10 0 6 -4 10 -10 10 -5 0
-10 -4 -10 -10z"/>
<path d="M5437 4133 c-4 -3 -7 -11 -7 -17 0 -6 5 -5 12 2 6 6 9 14 7 17 -3 3
-9 2 -12 -2z"/>
<path d="M7427 4163 c-11 -10 -8 -41 5 -49 8 -5 9 -2 5 9 -3 9 -2 19 3 22 6 4
10 10 10 16 0 10 -14 12 -23 2z"/>
<path d="M5430 4030 c0 -5 5 -10 10 -10 6 0 10 5 10 10 0 6 -4 10 -10 10 -5 0
-10 -4 -10 -10z"/>
<path d="M5430 4000 c0 -5 5 -10 11 -10 5 0 7 5 4 10 -3 6 -8 10 -11 10 -2 0
-4 -4 -4 -10z"/>
<path d="M7340 4001 c0 -5 5 -13 10 -16 6 -3 10 -2 10 4 0 5 -4 13 -10 16 -5
3 -10 2 -10 -4z"/>
<path d="M5500 4029 c0 -5 4 -8 9 -5 5 4 12 0 14 -6 3 -8 6 -6 6 5 1 9 -6 17
-14 17 -8 0 -15 -5 -15 -11z"/>
<path d="M5500 3999 c0 -5 9 -9 20 -9 11 0 20 2 20 4 0 2 -9 6 -20 9 -11 3
-20 1 -20 -4z"/>
<path d="M7427 4027 c-3 -8 -1 -20 5 -28 8 -11 9 -10 4 4 -3 9 -1 17 4 17 6 0
10 5 10 10 0 15 -17 12 -23 -3z"/>
<path d="M5518 3885 c-3 -14 -1 -25 3 -25 5 0 9 11 9 25 0 14 -2 25 -4 25 -2
0 -6 -11 -8 -25z"/>
<path d="M6310 3910 c0 -5 5 -10 11 -10 5 0 7 5 4 10 -3 6 -8 10 -11 10 -2 0
-4 -4 -4 -10z"/>
<path d="M6390 3910 c0 -5 5 -10 10 -10 6 0 10 5 10 10 0 6 -4 10 -10 10 -5 0
-10 -4 -10 -10z"/>
<path d="M6390 3870 c0 -5 5 -10 10 -10 6 0 10 5 10 10 0 6 -4 10 -10 10 -5 0
-10 -4 -10 -10z"/>
<path d="M7265 3870 c3 -5 8 -10 11 -10 2 0 4 5 4 10 0 6 -5 10 -11 10 -5 0
-7 -4 -4 -10z"/>
<path d="M7340 3900 c0 -5 7 -10 15 -10 8 0 15 5 15 10 0 6 -7 10 -15 10 -8 0
-15 -4 -15 -10z"/>
<path d="M7340 3870 c0 -5 5 -10 10 -10 6 0 10 5 10 10 0 6 -4 10 -10 10 -5 0
-10 -4 -10 -10z"/>
<path d="M7825 3910 c-3 -5 1 -10 10 -10 9 0 13 5 10 10 -3 6 -8 10 -10 10 -2
0 -7 -4 -10 -10z"/>
<path d="M7825 3870 c3 -5 8 -10 11 -10 2 0 4 5 4 10 0 6 -5 10 -11 10 -5 0
-7 -4 -4 -10z"/>
<path d="M5350 3775 c0 -8 7 -15 15 -15 9 0 12 6 9 15 -4 8 -10 15 -15 15 -5
0 -9 -7 -9 -15z"/>
<path d="M5430 3740 c0 -5 5 -10 10 -10 6 0 10 5 10 10 0 6 -4 10 -10 10 -5 0
-10 -4 -10 -10z"/>
<path d="M6310 3739 c0 -5 5 -7 10 -4 6 3 10 8 10 11 0 2 -4 4 -10 4 -5 0 -10
-5 -10 -11z"/>
<path d="M7347 3783 c-12 -11 -8 -23 8 -23 8 0 15 7 15 15 0 16 -12 20 -23 8z"/>
<path d="M7340 3740 c0 -6 7 -10 15 -10 8 0 15 2 15 4 0 2 -7 6 -15 10 -8 3
-15 1 -15 -4z"/>
<path d="M7820 3780 c0 -5 5 -10 10 -10 6 0 10 5 10 10 0 6 -4 10 -10 10 -5 0
-10 -4 -10 -10z"/>
<path d="M7344 3649 c-3 -6 0 -15 7 -20 12 -8 12 -11 -1 -19 -13 -8 -12 -10 3
-10 12 0 17 8 17 30 0 30 -13 40 -26 19z"/>
<path d="M5350 3630 c0 -16 5 -30 10 -30 6 0 10 14 10 30 0 17 -4 30 -10 30
-5 0 -10 -13 -10 -30z"/>
<path d="M5430 3644 c0 -8 5 -12 10 -9 6 3 10 10 10 16 0 5 -4 9 -10 9 -5 0
-10 -7 -10 -16z"/>
<path d="M6390 3610 c0 -5 5 -10 10 -10 6 0 10 5 10 10 0 6 -4 10 -10 10 -5 0
-10 -4 -10 -10z"/>
<path d="M5350 3506 c0 -36 17 -41 18 -6 0 17 -4 30 -9 30 -5 0 -9 -11 -9 -24z"/>
<path d="M7342 3518 c6 -18 28 -21 28 -4 0 9 -7 16 -16 16 -9 0 -14 -5 -12
-12z"/>
<path d="M7345 3480 c3 -5 8 -10 11 -10 2 0 4 5 4 10 0 6 -5 10 -11 10 -5 0
-7 -4 -4 -10z"/>
<path d="M7420 3517 c0 -8 7 -14 15 -14 8 0 15 6 15 14 0 7 -7 13 -15 13 -8 0
-15 -6 -15 -13z"/>
<path d="M7428 3483 c7 -3 16 -2 19 1 4 3 -2 6 -13 5 -11 0 -14 -3 -6 -6z"/>
<path d="M5350 3375 c0 -14 4 -25 9 -25 5 0 9 11 9 25 0 14 -4 25 -9 25 -5 0
-9 -11 -9 -25z"/>
<path d="M5515 3390 c3 -5 8 -10 11 -10 2 0 4 5 4 10 0 6 -5 10 -11 10 -5 0
-7 -4 -4 -10z"/>
<path d="M5508 3353 c7 -3 16 -2 19 1 4 3 -2 6 -13 5 -11 0 -14 -3 -6 -6z"/>
<path d="M7340 3375 c0 -16 6 -25 16 -25 14 0 14 3 4 15 -9 10 -9 15 -1 15 6
0 11 5 11 10 0 6 -7 10 -15 10 -9 0 -15 -9 -15 -25z"/>
<path d="M7420 3391 c0 -5 7 -11 15 -15 9 -3 15 0 15 9 0 8 -7 15 -15 15 -8 0
-15 -4 -15 -9z"/>
<path d="M5350 3265 c0 -8 5 -15 10 -15 6 0 10 7 10 15 0 8 -4 15 -10 15 -5 0
-10 -7 -10 -15z"/>
<path d="M5350 3230 c0 -5 5 -10 10 -10 6 0 10 5 10 10 0 6 -4 10 -10 10 -5 0
-10 -4 -10 -10z"/>
<path d="M5430 3230 c0 -5 5 -10 11 -10 5 0 7 5 4 10 -3 6 -8 10 -11 10 -2 0
-4 -4 -4 -10z"/>
<path d="M5500 3251 c0 -21 5 -31 15 -31 8 0 15 9 15 20 0 11 0 23 1 28 0 4
-7 8 -15 10 -12 3 -16 -5 -16 -27z"/>
<path d="M7340 3260 c0 -5 7 -10 15 -10 8 0 15 5 15 10 0 6 -7 10 -15 10 -8 0
-15 -4 -15 -10z"/>
<path d="M7340 3230 c0 -5 7 -10 16 -10 8 0 12 5 9 10 -3 6 -10 10 -16 10 -5
0 -9 -4 -9 -10z"/>
<path d="M7420 3260 c0 -5 5 -10 10 -10 6 0 10 5 10 10 0 6 -4 10 -10 10 -5 0
-10 -4 -10 -10z"/>
<path d="M7425 3230 c3 -5 11 -10 16 -10 6 0 7 5 4 10 -3 6 -11 10 -16 10 -6
0 -7 -4 -4 -10z"/>
<path d="M5345 3100 c-3 -5 1 -10 9 -10 9 0 16 5 16 10 0 6 -4 10 -9 10 -6 0
-13 -4 -16 -10z"/>
<path d="M5430 3141 c0 -6 5 -13 10 -16 6 -3 10 1 10 9 0 9 -4 16 -10 16 -5 0
-10 -4 -10 -9z"/>
<path d="M5435 3100 c3 -5 8 -10 11 -10 2 0 4 5 4 10 0 6 -5 10 -11 10 -5 0
-7 -4 -4 -10z"/>
<path d="M5510 3130 c0 -11 5 -20 10 -20 6 0 10 9 10 20 0 11 -4 20 -10 20 -5
0 -10 -9 -10 -20z"/>
<path d="M7340 3135 c0 -8 7 -15 15 -15 8 0 15 4 15 9 0 5 -7 11 -15 15 -9 3
-15 0 -15 -9z"/>
<path d="M7345 3100 c3 -5 10 -10 16 -10 5 0 9 5 9 10 0 6 -7 10 -16 10 -8 0
-12 -4 -9 -10z"/>
<path d="M7425 3140 c-3 -5 1 -10 10 -10 9 0 13 5 10 10 -3 6 -8 10 -10 10 -2
0 -7 -4 -10 -10z"/>
<path d="M7420 3109 c0 -4 7 -9 15 -13 9 -3 15 0 15 8 0 7 -7 13 -15 13 -8 0
-15 -4 -15 -8z"/>
<path d="M5355 3010 c3 -5 8 -10 11 -10 2 0 4 5 4 10 0 6 -5 10 -11 10 -5 0
-7 -4 -4 -10z"/>
<path d="M5350 2970 c0 -5 5 -10 10 -10 6 0 10 5 10 10 0 6 -4 10 -10 10 -5 0
-10 -4 -10 -10z"/>
<path d="M7340 2996 c0 -26 16 -43 28 -31 4 4 1 10 -5 12 -7 3 -13 9 -13 14 0
6 5 7 10 4 6 -3 10 1 10 9 0 9 -7 16 -15 16 -9 0 -15 -9 -15 -24z"/>
<path d="M5506 3011 c-3 -5 1 -11 9 -15 9 -3 15 0 15 9 0 16 -16 20 -24 6z"/>
<path d="M7431 3011 c-15 -10 -11 -43 7 -49 6 -2 12 4 12 15 0 15 -2 16 -10 3
-8 -13 -10 -13 -10 2 0 9 6 18 13 21 6 2 10 7 7 10 -3 3 -12 2 -19 -2z"/>
<path d="M5435 2880 c3 -5 8 -10 11 -10 2 0 4 5 4 10 0 6 -5 10 -11 10 -5 0
-7 -4 -4 -10z"/>
<path d="M5750 2850 c0 -5 5 -10 11 -10 5 0 7 5 4 10 -3 6 -8 10 -11 10 -2 0
-4 -4 -4 -10z"/>
<path d="M6310 2850 c0 -5 5 -10 10 -10 6 0 10 5 10 10 0 6 -4 10 -10 10 -5 0
-10 -4 -10 -10z"/>
<path d="M7340 2865 c0 -17 5 -25 18 -25 14 0 15 2 2 10 -10 6 -11 10 -2 10 6
0 12 7 12 15 0 8 -7 15 -15 15 -9 0 -15 -9 -15 -25z"/>
<path d="M7420 2882 c0 -5 7 -9 15 -9 8 0 15 4 15 9 0 4 -7 8 -15 8 -8 0 -15
-4 -15 -8z"/>
<path d="M7420 2850 c0 -6 7 -10 15 -10 8 0 15 2 15 4 0 2 -7 6 -15 10 -8 3
-15 1 -15 -4z"/>
<path d="M5430 2749 c0 -5 5 -7 10 -4 6 3 10 8 10 11 0 2 -4 4 -10 4 -5 0 -10
-5 -10 -11z"/>
<path d="M5511 2754 c0 -11 3 -14 6 -6 3 7 2 16 -1 19 -3 4 -6 -2 -5 -13z"/>
<path d="M5515 2720 c-3 -5 -1 -10 4 -10 6 0 11 5 11 10 0 6 -2 10 -4 10 -3 0
-8 -4 -11 -10z"/>
<path d="M5750 2760 c0 -5 5 -10 11 -10 5 0 7 5 4 10 -3 6 -8 10 -11 10 -2 0
-4 -4 -4 -10z"/>
<path d="M5750 2720 c0 -5 5 -10 11 -10 5 0 7 5 4 10 -3 6 -8 10 -11 10 -2 0
-4 -4 -4 -10z"/>
<path d="M5830 2720 c0 -5 5 -10 11 -10 5 0 7 5 4 10 -3 6 -8 10 -11 10 -2 0
-4 -4 -4 -10z"/>
<path d="M6145 2760 c-3 -5 -1 -10 4 -10 6 0 11 5 11 10 0 6 -2 10 -4 10 -3 0
-8 -4 -11 -10z"/>
<path d="M6637 2733 c-4 -3 -7 -11 -7 -17 0 -6 5 -5 12 2 6 6 9 14 7 17 -3 3
-9 2 -12 -2z"/>
<path d="M7420 2752 c0 -5 7 -9 15 -9 8 0 15 4 15 9 0 4 -7 8 -15 8 -8 0 -15
-4 -15 -8z"/>
<path d="M7420 2720 c0 -5 7 -10 15 -10 8 0 15 5 15 10 0 6 -7 10 -15 10 -8 0
-15 -4 -15 -10z"/>
</g>
</svg>
