<svg xmlns="http://www.w3.org/2000/svg" viewBox="0 0 32 32" shape-rendering="crispEdges">
  <!-- Retro computer pixel art -->
  <rect fill="none" width="32" height="32"/>
  <!-- Monitor -->
  <rect x="8" y="6" width="16" height="14" fill="#333333"/>
  <rect x="9" y="7" width="14" height="10" fill="#4A9EFF"/>
  <rect x="10" y="8" width="12" height="8" fill="#87CEEB"/>
  <!-- Screen details -->
  <rect x="11" y="9" width="4" height="2" fill="#50C878"/>
  <rect x="16" y="9" width="4" height="2" fill="#50C878"/>
  <rect x="11" y="12" width="10" height="2" fill="#50C878"/>
  <!-- Stand -->
  <rect x="14" y="20" width="4" height="3" fill="#333333"/>
  <rect x="12" y="23" width="8" height="1" fill="#333333"/>
  <!-- Keyboard -->
  <rect x="6" y="25" width="20" height="4" fill="#555555"/>
  <rect x="7" y="26" width="3" height="1" fill="#777777"/>
  <rect x="11" y="26" width="3" height="1" fill="#777777"/>
  <rect x="15" y="26" width="3" height="1" fill="#777777"/>
  <rect x="19" y="26" width="3" height="1" fill="#777777"/>
  <rect x="7" y="28" width="4" height="1" fill="#777777"/>
  <rect x="12" y="28" width="8" height="1" fill="#777777"/>
  <rect x="21" y="28" width="3" height="1" fill="#777777"/>
</svg>
